<svg version="1.1" viewBox="0.0 0.0 287.61942257217845 376.5196850393701" fill="none" stroke="none" stroke-linecap="square" stroke-miterlimit="10" xmlns:xlink="http://www.w3.org/1999/xlink" xmlns="http://www.w3.org/2000/svg"><clipPath id="p.0"><path d="m0 0l287.61942 0l0 376.51968l-287.61942 0l0 -376.51968z" clip-rule="nonzero"/></clipPath><g clip-path="url(#p.0)"><path fill="#000000" fill-opacity="0.0" d="m0 0l287.61942 0l0 376.51968l-287.61942 0z" fill-rule="evenodd"/><path fill="#000000" fill-opacity="0.0" d="m163.96194 105.535515l-0.06298828 25.165352" fill-rule="evenodd"/><path stroke="#000000" stroke-width="1.0" stroke-linejoin="round" stroke-linecap="butt" d="m163.96194 105.535515l-0.06298828 25.165352" fill-rule="evenodd"/><path fill="#ffffff" d="m143.4747 151.58534l0 0c0 -11.532745 9.137619 -20.881897 20.409454 -20.881897l0 0c5.412918 0 10.604141 2.200058 14.431656 6.116165c3.8275146 3.9161224 5.9777985 9.227509 5.9777985 14.765732l0 0c0 11.532745 -9.137634 20.881882 -20.409454 20.881882l0 0c-11.271835 0 -20.409454 -9.349136 -20.409454 -20.881882z" fill-rule="evenodd"/><path stroke="#000000" stroke-width="1.0" stroke-linejoin="round" stroke-linecap="butt" d="m143.4747 151.58534l0 0c0 -11.532745 9.137619 -20.881897 20.409454 -20.881897l0 0c5.412918 0 10.604141 2.200058 14.431656 6.116165c3.8275146 3.9161224 5.9777985 9.227509 5.9777985 14.765732l0 0c0 11.532745 -9.137634 20.881882 -20.409454 20.881882l0 0c-11.271835 0 -20.409454 -9.349136 -20.409454 -20.881882z" fill-rule="evenodd"/><path fill="#ffffff" d="m33.77568 325.77222l30.425194 0l0 29.417297l-30.425194 0z" fill-rule="evenodd"/><path stroke="#000000" stroke-width="1.0" stroke-linejoin="round" stroke-linecap="butt" d="m33.77568 325.77222l30.425194 0l0 29.417297l-30.425194 0z" fill-rule="evenodd"/><path fill="#000000" d="m50.322556 346.21335q-0.921875 0.765625 -1.765625 1.09375q-0.828125 0.3125 -1.796875 0.3125q-1.59375 0 -2.453125 -0.78125q-0.859375 -0.78125 -0.859375 -1.984375q0 -0.71875 0.328125 -1.296875q0.328125 -0.59375 0.84375 -0.9375q0.53125 -0.359375 1.1875 -0.546875q0.46875 -0.125 1.453125 -0.25q1.984375 -0.234375 2.921875 -0.5625q0.015625 -0.34375 0.015625 -0.421875q0 -1.0 -0.46875 -1.421875q-0.625 -0.546875 -1.875 -0.546875q-1.15625 0 -1.703125 0.40625q-0.546875 0.40625 -0.8125 1.421875l-1.609375 -0.21875q0.21875 -1.015625 0.71875 -1.640625q0.5 -0.640625 1.453125 -0.984375q0.953125 -0.34375 2.1875 -0.34375q1.25 0 2.015625 0.296875q0.78125 0.28125 1.140625 0.734375q0.375 0.4375 0.515625 1.109375q0.078125 0.421875 0.078125 1.515625l0 2.1875q0 2.28125 0.109375 2.890625q0.109375 0.59375 0.40625 1.15625l-1.703125 0q-0.265625 -0.515625 -0.328125 -1.1875zm-0.140625 -3.671875q-0.890625 0.375 -2.671875 0.625q-1.015625 0.140625 -1.4375 0.328125q-0.421875 0.1875 -0.65625 0.53125q-0.21875 0.34375 -0.21875 0.78125q0 0.65625 0.5 1.09375q0.5 0.4375 1.453125 0.4375q0.9375 0 1.671875 -0.40625q0.75 -0.421875 1.09375 -1.140625q0.265625 -0.5625 0.265625 -1.640625l0 -0.609375z" fill-rule="nonzero"/><path fill="#000000" fill-opacity="0.0" d="m48.990547 301.29956l0 24.472443" fill-rule="evenodd"/><path stroke="#000000" stroke-width="1.0" stroke-linejoin="round" stroke-linecap="butt" d="m48.990547 301.29956l0 24.472443" fill-rule="evenodd"/><path fill="#000000" fill-opacity="0.0" d="m115.01135 234.50854l31.81102 25.039368" fill-rule="evenodd"/><path stroke="#000000" stroke-width="1.0" stroke-linejoin="round" stroke-linecap="butt" d="m115.01135 234.50854l31.81102 25.039368" fill-rule="evenodd"/><path fill="#20124d" d="m143.5525 84.653625l0 0c0 -11.532745 9.137619 -20.88189 20.40944 -20.88189l0 0c5.4129333 0 10.6041565 2.2000504 14.431671 6.116165c3.8275146 3.9161148 5.977783 9.227501 5.977783 14.765724l0 0c0 11.532753 -9.137619 20.88189 -20.409454 20.88189l0 0c-11.27182 0 -20.40944 -9.349136 -20.40944 -20.88189z" fill-rule="evenodd"/><path stroke="#000000" stroke-width="1.0" stroke-linejoin="round" stroke-linecap="butt" d="m143.5525 84.653625l0 0c0 -11.532745 9.137619 -20.88189 20.40944 -20.88189l0 0c5.4129333 0 10.6041565 2.2000504 14.431671 6.116165c3.8275146 3.9161148 5.977783 9.227501 5.977783 14.765724l0 0c0 11.532753 -9.137619 20.88189 -20.409454 20.88189l0 0c-11.27182 0 -20.40944 -9.349136 -20.40944 -20.88189z" fill-rule="evenodd"/><path fill="#ffffff" d="m80.17024 219.74283l0 0c0 -11.532761 9.137619 -20.881897 20.409447 -20.881897l0 0c5.4129257 0 10.604149 2.200058 14.4316635 6.116165c3.8275146 3.9161072 5.977791 9.227509 5.977791 14.765732l0 0c0 11.532745 -9.137627 20.881882 -20.409454 20.881882l0 0c-11.271828 0 -20.409447 -9.349136 -20.409447 -20.881882z" fill-rule="evenodd"/><path stroke="#000000" stroke-width="1.0" stroke-linejoin="round" stroke-linecap="butt" d="m80.17024 219.74283l0 0c0 -11.532761 9.137619 -20.881897 20.409447 -20.881897l0 0c5.4129257 0 10.604149 2.200058 14.4316635 6.116165c3.8275146 3.9161072 5.977791 9.227509 5.977791 14.765732l0 0c0 11.532745 -9.137627 20.881882 -20.409454 20.881882l0 0c-11.271828 0 -20.409447 -9.349136 -20.409447 -20.881882z" fill-rule="evenodd"/><path fill="#000000" fill-opacity="0.0" d="m100.57969 198.86093l48.88189 -32.503937" fill-rule="evenodd"/><path stroke="#000000" stroke-width="1.0" stroke-linejoin="round" stroke-linecap="butt" d="m100.57969 198.86093l48.88189 -32.503937" fill-rule="evenodd"/><path fill="#000000" fill-opacity="0.0" d="m221.78178 198.85962l-43.464554 -32.503937" fill-rule="evenodd"/><path stroke="#000000" stroke-width="1.0" stroke-linejoin="round" stroke-linecap="butt" d="m221.78178 198.85962l-43.464554 -32.503937" fill-rule="evenodd"/><path fill="#ffffff" d="m206.56992 271.705l30.425201 0l0 29.417328l-30.425201 0z" fill-rule="evenodd"/><path stroke="#000000" stroke-width="1.0" stroke-linejoin="round" stroke-linecap="butt" d="m206.56992 271.705l30.425201 0l0 29.417328l-30.425201 0z" fill-rule="evenodd"/><path fill="#000000" d="m223.06992 293.33365l0 -1.21875q-0.90625 1.4375 -2.703125 1.4375q-1.15625 0 -2.125 -0.640625q-0.96875 -0.640625 -1.5 -1.78125q-0.53125 -1.140625 -0.53125 -2.625q0 -1.453125 0.484375 -2.625q0.484375 -1.1875 1.4375 -1.8125q0.96875 -0.625 2.171875 -0.625q0.875 0 1.546875 0.375q0.6875 0.359375 1.109375 0.953125l0 -4.796875l1.640625 0l0 13.359375l-1.53125 0zm-5.171875 -4.828125q0 1.859375 0.78125 2.78125q0.78125 0.921875 1.84375 0.921875q1.078125 0 1.828125 -0.875q0.75 -0.890625 0.75 -2.6875q0 -1.984375 -0.765625 -2.90625q-0.765625 -0.9375 -1.890625 -0.9375q-1.078125 0 -1.8125 0.890625q-0.734375 0.890625 -0.734375 2.8125z" fill-rule="nonzero"/><path fill="#000000" fill-opacity="0.0" d="m221.78178 240.6234l0 31.086624" fill-rule="evenodd"/><path stroke="#000000" stroke-width="1.0" stroke-linejoin="round" stroke-linecap="butt" d="m221.78178 240.6234l0 31.086624" fill-rule="evenodd"/><path fill="#20124d" d="m201.37234 219.74152l0 0c0 -11.532761 9.137619 -20.881897 20.40944 -20.881897l0 0c5.4129333 0 10.6041565 2.200058 14.431671 6.116165c3.8275146 3.9161072 5.977783 9.227509 5.977783 14.765732l0 0c0 11.532745 -9.137619 20.881882 -20.409454 20.881882l0 0c-11.27182 0 -20.40944 -9.349136 -20.40944 -20.881882z" fill-rule="evenodd"/><path stroke="#000000" stroke-width="1.0" stroke-linejoin="round" stroke-linecap="butt" d="m201.37234 219.74152l0 0c0 -11.532761 9.137619 -20.881897 20.40944 -20.881897l0 0c5.4129333 0 10.6041565 2.200058 14.431671 6.116165c3.8275146 3.9161072 5.977783 9.227509 5.977783 14.765732l0 0c0 11.532745 -9.137619 20.881882 -20.409454 20.881882l0 0c-11.27182 0 -20.40944 -9.349136 -20.40944 -20.881882z" fill-rule="evenodd"/><path fill="#000000" fill-opacity="0.0" d="m162.9537 42.77305l0 30.551178" fill-rule="evenodd"/><path stroke="#000000" stroke-width="1.0" stroke-linejoin="round" stroke-linecap="butt" d="m162.9537 42.77305l0 30.551178" fill-rule="evenodd"/><path fill="#ffffff" d="m94.9635 325.82727l30.425201 0l0 29.417328l-30.425201 0z" fill-rule="evenodd"/><path stroke="#000000" stroke-width="1.0" stroke-linejoin="round" stroke-linecap="butt" d="m94.9635 325.82727l30.425201 0l0 29.417328l-30.425201 0z" fill-rule="evenodd"/><path fill="#000000" d="m106.697876 347.45593l-1.515625 0l0 -13.359375l1.640625 0l0 4.765625q1.046875 -1.296875 2.65625 -1.296875q0.890625 0 1.6875 0.359375q0.796875 0.359375 1.3125 1.015625q0.515625 0.640625 0.796875 1.5625q0.296875 0.921875 0.296875 1.96875q0 2.484375 -1.234375 3.84375q-1.21875 1.359375 -2.953125 1.359375q-1.703125 0 -2.6875 -1.4375l0 1.21875zm-0.015625 -4.90625q0 1.734375 0.484375 2.515625q0.765625 1.265625 2.09375 1.265625q1.078125 0 1.859375 -0.9375q0.78125 -0.9375 0.78125 -2.78125q0 -1.890625 -0.75 -2.796875q-0.75 -0.90625 -1.828125 -0.90625q-1.0625 0 -1.859375 0.9375q-0.78125 0.9375 -0.78125 2.703125z" fill-rule="nonzero"/><path fill="#ffffff" d="m163.27715 325.82727l30.425201 0l0 29.417328l-30.425201 0z" fill-rule="evenodd"/><path stroke="#000000" stroke-width="1.0" stroke-linejoin="round" stroke-linecap="butt" d="m163.27715 325.82727l30.425201 0l0 29.417328l-30.425201 0z" fill-rule="evenodd"/><path fill="#000000" d="m179.82402 343.90906l1.609375 0.21875q-0.265625 1.65625 -1.359375 2.609375q-1.078125 0.9375 -2.671875 0.9375q-1.984375 0 -3.1875 -1.296875q-1.203125 -1.296875 -1.203125 -3.71875q0 -1.578125 0.515625 -2.75q0.515625 -1.171875 1.578125 -1.75q1.0625 -0.59375 2.3125 -0.59375q1.578125 0 2.578125 0.796875q1.0 0.796875 1.28125 2.265625l-1.59375 0.234375q-0.234375 -0.96875 -0.8125 -1.453125q-0.578125 -0.5 -1.390625 -0.5q-1.234375 0 -2.015625 0.890625q-0.78125 0.890625 -0.78125 2.8125q0 1.953125 0.75 2.84375q0.75 0.875 1.953125 0.875q0.96875 0 1.609375 -0.59375q0.65625 -0.59375 0.828125 -1.828125z" fill-rule="nonzero"/><path fill="#000000" fill-opacity="0.0" d="m132.4012 295.18332l-22.236221 30.64566" fill-rule="evenodd"/><path stroke="#000000" stroke-width="1.0" stroke-linejoin="round" stroke-linecap="butt" d="m132.4012 295.18332l-22.236221 30.64566" fill-rule="evenodd"/><path fill="#000000" fill-opacity="0.0" d="m161.26451 295.18332l17.228348 30.64566" fill-rule="evenodd"/><path stroke="#000000" stroke-width="1.0" stroke-linejoin="round" stroke-linecap="butt" d="m161.26451 295.18332l17.228348 30.64566" fill-rule="evenodd"/><path fill="#ffffff" d="m126.42341 280.41757l0 0c0 -11.532745 9.137627 -20.881897 20.409447 -20.881897l0 0c5.412918 0 10.604141 2.2000732 14.431656 6.1161804c3.8275146 3.9161072 5.9777985 9.227509 5.9777985 14.765717l0 0c0 11.532745 -9.137619 20.881897 -20.409454 20.881897l0 0c-11.27182 0 -20.409447 -9.349152 -20.409447 -20.881897z" fill-rule="evenodd"/><path stroke="#000000" stroke-width="1.0" stroke-linejoin="round" stroke-linecap="butt" d="m126.42341 280.41757l0 0c0 -11.532745 9.137627 -20.881897 20.409447 -20.881897l0 0c5.412918 0 10.604141 2.2000732 14.431656 6.1161804c3.8275146 3.9161072 5.9777985 9.227509 5.9777985 14.765717l0 0c0 11.532745 -9.137619 20.881897 -20.409454 20.881897l0 0c-11.27182 0 -20.409447 -9.349152 -20.409447 -20.881897z" fill-rule="evenodd"/><path fill="#20124d" d="m28.581099 280.4177l0 0c0 -11.532776 9.137621 -20.881897 20.409449 -20.881897l0 0c5.412922 0 10.604145 2.2000427 14.43166 6.11615c3.8275108 3.9161072 5.977787 9.227509 5.977787 14.765747l0 0c0 11.532745 -9.137619 20.881866 -20.409447 20.881866l0 0c-11.271828 0 -20.409449 -9.349121 -20.409449 -20.881866z" fill-rule="evenodd"/><path stroke="#000000" stroke-width="1.0" stroke-linejoin="round" stroke-linecap="butt" d="m28.581099 280.4177l0 0c0 -11.532776 9.137621 -20.881897 20.409449 -20.881897l0 0c5.412922 0 10.604145 2.2000427 14.43166 6.11615c3.8275108 3.9161072 5.977787 9.227509 5.977787 14.765747l0 0c0 11.532745 -9.137619 20.881866 -20.409447 20.881866l0 0c-11.271828 0 -20.409449 -9.349121 -20.409449 -20.881866z" fill-rule="evenodd"/><path fill="#000000" fill-opacity="0.0" d="m86.14803 234.50854l-37.165356 25.039368" fill-rule="evenodd"/><path stroke="#000000" stroke-width="1.0" stroke-linejoin="round" stroke-linecap="butt" d="m86.14803 234.50854l-37.165356 25.039368" fill-rule="evenodd"/><path fill="#000000" fill-opacity="0.0" d="m149.46194 8.716536l22.236221 0l0 55.055115l-22.236221 0z" fill-rule="evenodd"/><path fill="#000000" d="m158.82132 35.63653l0 -1.328125l6.15625 -7.078123q-1.046875 0.0625 -1.84375 0.0625l-3.9375 0l0 -1.328125l7.90625 0l0 1.078125l-5.25 6.140623l-1.0 1.125q1.09375 -0.078125 2.0625 -0.078125l4.46875 0l0 1.40625l-8.5625 0z" fill-rule="nonzero"/><path fill="#000000" fill-opacity="0.0" d="m193.70341 154.66405l40.818893 0l0 26.992126l-40.818893 0z" fill-rule="evenodd"/><path fill="#000000" d="m203.28154 178.69342l1.625 -0.25q0.125 0.96875 0.75 1.5q0.625 0.515625 1.75 0.515625q1.125 0 1.671875 -0.453125q0.546875 -0.46875 0.546875 -1.09375q0 -0.546875 -0.484375 -0.875q-0.328125 -0.21875 -1.671875 -0.546875q-1.8125 -0.46875 -2.515625 -0.796875q-0.6875 -0.328125 -1.046875 -0.90625q-0.359375 -0.59375 -0.359375 -1.3125q0 -0.640625 0.296875 -1.1875q0.296875 -0.5625 0.8125 -0.921875q0.375 -0.28125 1.03125 -0.46875q0.671875 -0.203125 1.421875 -0.203125q1.140625 0 2.0 0.328125q0.859375 0.328125 1.265625 0.890625q0.421875 0.5625 0.578125 1.5l-1.609375 0.21875q-0.109375 -0.75 -0.640625 -1.171875q-0.515625 -0.421875 -1.46875 -0.421875q-1.140625 0 -1.625 0.375q-0.46875 0.375 -0.46875 0.875q0 0.3125 0.1875 0.578125q0.203125 0.265625 0.640625 0.4375q0.234375 0.09375 1.4375 0.421875q1.75 0.453125 2.4375 0.75q0.6875 0.296875 1.078125 0.859375q0.390625 0.5625 0.390625 1.40625q0 0.828125 -0.484375 1.546875q-0.46875 0.71875 -1.375 1.125q-0.90625 0.390625 -2.046875 0.390625q-1.875 0 -2.875 -0.78125q-0.984375 -0.78125 -1.25 -2.328125z" fill-rule="nonzero"/><path fill="#000000" fill-opacity="0.0" d="m162.95276 95.72179l40.818893 0l0 26.992126l-40.818893 0z" fill-rule="evenodd"/><path fill="#000000" d="m176.76526 121.173035l0.234375 1.453125q-0.6875 0.140625 -1.234375 0.140625q-0.890625 0 -1.390625 -0.28125q-0.484375 -0.28125 -0.6875 -0.734375q-0.203125 -0.46875 -0.203125 -1.9375l0 -5.578125l-1.203125 0l0 -1.265625l1.203125 0l0 -2.390625l1.625 -0.984375l0 3.375l1.65625 0l0 1.265625l-1.65625 0l0 5.671875q0 0.6875 0.078125 0.890625q0.09375 0.203125 0.28125 0.328125q0.203125 0.109375 0.578125 0.109375q0.265625 0 0.71875 -0.0625z" fill-rule="nonzero"/><path fill="#000000" fill-opacity="0.0" d="m100.874016 154.66405l40.8189 0l0 26.992126l-40.8189 0z" fill-rule="evenodd"/><path fill="#000000" d="m111.092766 181.58405l0 -9.671875l1.46875 0l0 1.46875q0.5625 -1.03125 1.03125 -1.359375q0.484375 -0.328125 1.0625 -0.328125q0.828125 0 1.6875 0.53125l-0.5625 1.515625q-0.609375 -0.359375 -1.203125 -0.359375q-0.546875 0 -0.96875 0.328125q-0.421875 0.328125 -0.609375 0.890625q-0.28125 0.875 -0.28125 1.921875l0 5.0625l-1.625 0z" fill-rule="nonzero"/><path fill="#000000" fill-opacity="0.0" d="m123.350395 215.70079l40.8189 0l0 26.992126l-40.8189 0z" fill-rule="evenodd"/><path fill="#000000" d="m139.74101 246.32391l0 -4.734375q-0.375 0.546875 -1.0625 0.90625q-0.6875 0.34375 -1.46875 0.34375q-1.71875 0 -2.96875 -1.375q-1.234375 -1.375 -1.234375 -3.765625q0 -1.46875 0.5 -2.625q0.515625 -1.15625 1.46875 -1.75q0.96875 -0.59375 2.109375 -0.59375q1.796875 0 2.828125 1.515625l0 -1.296875l1.46875 0l0 13.375l-1.640625 0zm-5.046875 -8.5625q0 1.859375 0.78125 2.796875q0.78125 0.9375 1.875 0.9375q1.046875 0 1.796875 -0.890625q0.765625 -0.890625 0.765625 -2.703125q0 -1.9375 -0.796875 -2.90625q-0.796875 -0.96875 -1.875 -0.96875q-1.0625 0 -1.8125 0.90625q-0.734375 0.90625 -0.734375 2.828125z" fill-rule="nonzero"/><path fill="#000000" fill-opacity="0.0" d="m39.351707 215.70079l40.818893 0l0 26.992126l-40.818893 0z" fill-rule="evenodd"/><path fill="#000000" d="m49.586082 246.32391l0 -13.375l1.484375 0l0 1.25q0.53125 -0.734375 1.1875 -1.09375q0.671875 -0.375 1.625 -0.375q1.234375 0 2.171875 0.640625q0.953125 0.625 1.4375 1.796875q0.484375 1.15625 0.484375 2.546875q0 1.484375 -0.53125 2.671875q-0.53125 1.1875 -1.546875 1.828125q-1.015625 0.625 -2.140625 0.625q-0.8125 0 -1.46875 -0.34375q-0.65625 -0.34375 -1.0625 -0.875l0 4.703125l-1.640625 0zm1.484375 -8.484375q0 1.859375 0.75 2.765625q0.765625 0.890625 1.828125 0.890625q1.09375 0 1.875 -0.921875q0.78125 -0.9375 0.78125 -2.875q0 -1.84375 -0.765625 -2.765625q-0.75 -0.921875 -1.8125 -0.921875q-1.046875 0 -1.859375 0.984375q-0.796875 0.96875 -0.796875 2.84375z" fill-rule="nonzero"/></g></svg>