<svg version="1.1" viewBox="0.0 0.0 924.5170603674541 486.58792650918633" fill="none" stroke="none" stroke-linecap="square" stroke-miterlimit="10" xmlns:xlink="http://www.w3.org/1999/xlink" xmlns="http://www.w3.org/2000/svg"><clipPath id="p.0"><path d="m0 0l924.5171 0l0 486.58792l-924.5171 0l0 -486.58792z" clip-rule="nonzero"/></clipPath><g clip-path="url(#p.0)"><path fill="#000000" fill-opacity="0.0" d="m0 0l924.5171 0l0 486.58792l-924.5171 0z" fill-rule="evenodd"/><path fill="#000000" fill-opacity="0.0" d="m156.6873 263.46854l0.7873993 31.086609" fill-rule="evenodd"/><path stroke="#000000" stroke-width="1.0" stroke-linejoin="round" stroke-linecap="butt" d="m156.6873 263.46854l0.7873993 31.086609" fill-rule="evenodd"/><path fill="#20124d" d="m24.575754 314.09457l0 0c0 -11.532745 9.137621 -20.881897 20.409449 -20.881897l0 0c5.412922 0 10.604145 2.2000427 14.43166 6.1161804c3.8275146 3.9161072 5.977791 9.227478 5.977791 14.765717l0 0c0 11.532745 -9.137623 20.881897 -20.40945 20.881897l0 0c-11.271828 0 -20.409449 -9.349152 -20.409449 -20.881897z" fill-rule="evenodd"/><path stroke="#000000" stroke-width="1.0" stroke-linejoin="round" stroke-linecap="butt" d="m24.575754 314.09457l0 0c0 -11.532745 9.137621 -20.881897 20.409449 -20.881897l0 0c5.412922 0 10.604145 2.2000427 14.43166 6.1161804c3.8275146 3.9161072 5.977791 9.227478 5.977791 14.765717l0 0c0 11.532745 -9.137623 20.881897 -20.40945 20.881897l0 0c-11.271828 0 -20.409449 -9.349152 -20.409449 -20.881897z" fill-rule="evenodd"/><path fill="#cfe2f3" d="m44.985996 168.19986l0 0c-2.5777397 0 -4.667412 -2.0566711 -4.667412 -4.5937195l0 0c0 -1.218338 0.49174118 -2.3867645 1.367054 -3.2482605c0.875309 -0.861496 2.062481 -1.3454742 3.3003578 -1.3454742l0 0c2.5777397 0 4.667412 2.0566864 4.667412 4.5937347l0 0c0 2.5370483 -2.089672 4.5937195 -4.667412 4.5937195z" fill-rule="evenodd"/><path stroke="#000000" stroke-width="1.0" stroke-linejoin="round" stroke-linecap="butt" d="m44.985996 168.19986l0 0c-2.5777397 0 -4.667412 -2.0566711 -4.667412 -4.5937195l0 0c0 -1.218338 0.49174118 -2.3867645 1.367054 -3.2482605c0.875309 -0.861496 2.062481 -1.3454742 3.3003578 -1.3454742l0 0c2.5777397 0 4.667412 2.0566864 4.667412 4.5937347l0 0c0 2.5370483 -2.089672 4.5937195 -4.667412 4.5937195z" fill-rule="evenodd"/><path fill="#cfe2f3" d="m25.78836 199.68205l19.1983 -31.482193l19.1983 31.482193z" fill-rule="evenodd"/><path stroke="#000000" stroke-width="1.0" stroke-linejoin="round" stroke-linecap="butt" d="m25.78836 199.68205l19.1983 -31.482193l19.1983 31.482193z" fill-rule="evenodd"/><path fill="#000000" fill-opacity="0.0" d="m45.334454 235.93727l-0.34779358 -36.25522" fill-rule="evenodd"/><path stroke="#000000" stroke-width="1.0" stroke-linejoin="round" stroke-linecap="butt" d="m45.334454 235.93727l-0.34779358 -36.25522" fill-rule="evenodd"/><path fill="#000000" fill-opacity="0.0" d="m45.33445 159.01613l-0.3477974 -36.24285" fill-rule="evenodd"/><path stroke="#000000" stroke-width="1.0" stroke-linejoin="round" stroke-linecap="butt" d="m45.33445 159.01613l-0.3477974 -36.24285" fill-rule="evenodd"/><path fill="#ffffff" d="m137.06526 315.43704l0 0c0 -11.532745 9.137619 -20.881897 20.40944 -20.881897l0 0c5.4129333 0 10.6041565 2.2000732 14.431656 6.1161804c3.8275146 3.9161072 5.9777985 9.227509 5.9777985 14.765717l0 0c0 11.532745 -9.137619 20.881897 -20.409454 20.881897l0 0c-11.27182 0 -20.40944 -9.349152 -20.40944 -20.881897z" fill-rule="evenodd"/><path stroke="#000000" stroke-width="1.0" stroke-linejoin="round" stroke-linecap="butt" d="m137.06526 315.43704l0 0c0 -11.532745 9.137619 -20.881897 20.40944 -20.881897l0 0c5.4129333 0 10.6041565 2.2000732 14.431656 6.1161804c3.8275146 3.9161072 5.9777985 9.227509 5.9777985 14.765717l0 0c0 11.532745 -9.137619 20.881897 -20.409454 20.881897l0 0c-11.27182 0 -20.40944 -9.349152 -20.40944 -20.881897z" fill-rule="evenodd"/><path fill="#000000" fill-opacity="0.0" d="m157.34383 169.305l-0.8818817 -47.874023" fill-rule="evenodd"/><path stroke="#000000" stroke-width="1.0" stroke-linejoin="round" stroke-linecap="butt" d="m157.34383 169.305l-0.8818817 -47.874023" fill-rule="evenodd"/><path fill="#cfe2f3" d="m156.90186 150.93053l0 0c-2.5744324 0 -4.6614075 -2.488861 -4.6614075 -5.5590515l0 0c0 -3.0701752 2.086975 -5.5590515 4.6614075 -5.5590515l0 0c2.5744324 0 4.6614227 2.4888763 4.6614227 5.5590515l0 0c0 3.0701904 -2.0869904 5.5590515 -4.6614227 5.5590515z" fill-rule="evenodd"/><path stroke="#000000" stroke-width="1.0" stroke-linejoin="round" stroke-linecap="butt" d="m156.90186 150.93053l0 0c-2.5744324 0 -4.6614075 -2.488861 -4.6614075 -5.5590515l0 0c0 -3.0701752 2.086975 -5.5590515 4.6614075 -5.5590515l0 0c2.5744324 0 4.6614227 2.4888763 4.6614227 5.5590515l0 0c0 3.0701904 -2.0869904 5.5590515 -4.6614227 5.5590515z" fill-rule="evenodd"/><path fill="#000000" fill-opacity="0.0" d="m170.77736 226.06589l-0.8818817 -47.87401" fill-rule="evenodd"/><path stroke="#000000" stroke-width="1.0" stroke-linejoin="round" stroke-linecap="butt" d="m170.77736 226.06589l-0.8818817 -47.87401" fill-rule="evenodd"/><path fill="#000000" fill-opacity="0.0" d="m146.16187 226.06589l-0.881897 -47.87401" fill-rule="evenodd"/><path stroke="#000000" stroke-width="1.0" stroke-linejoin="round" stroke-linecap="butt" d="m146.16187 226.06589l-0.881897 -47.87401" fill-rule="evenodd"/><path fill="#cfe2f3" d="m132.8424 199.96022l0 -24.362213l0 0c0 -13.4548645 10.850937 -24.362198 24.236221 -24.362198c13.3853 0 24.236221 10.907333 24.236221 24.362198l0 24.362213z" fill-rule="evenodd"/><path stroke="#000000" stroke-width="1.0" stroke-linejoin="round" stroke-linecap="butt" d="m132.8424 199.96022l0 -24.362213l0 0c0 -13.4548645 10.850937 -24.362198 24.236221 -24.362198c13.3853 0 24.236221 10.907333 24.236221 24.362198l0 24.362213z" fill-rule="evenodd"/><path fill="#000000" fill-opacity="0.0" d="m44.985203 334.97647l0 30.551178" fill-rule="evenodd"/><path stroke="#000000" stroke-width="1.0" stroke-linejoin="round" stroke-linecap="butt" d="m44.985203 334.97647l0 30.551178" fill-rule="evenodd"/><path fill="#ffffff" d="m108.47149 366.87036l30.425194 0l0 29.417328l-30.425194 0z" fill-rule="evenodd"/><path stroke="#000000" stroke-width="1.0" stroke-linejoin="round" stroke-linecap="butt" d="m108.47149 366.87036l30.425194 0l0 29.417328l-30.425194 0z" fill-rule="evenodd"/><path fill="#ffffff" d="m179.80351 366.87036l30.425201 0l0 29.417328l-30.425201 0z" fill-rule="evenodd"/><path stroke="#000000" stroke-width="1.0" stroke-linejoin="round" stroke-linecap="butt" d="m179.80351 366.87036l30.425201 0l0 29.417328l-30.425201 0z" fill-rule="evenodd"/><path fill="#ffffff" d="m29.773329 365.52914l30.425196 0l0 29.417328l-30.425196 0z" fill-rule="evenodd"/><path stroke="#000000" stroke-width="1.0" stroke-linejoin="round" stroke-linecap="butt" d="m29.773329 365.52914l30.425196 0l0 29.417328l-30.425196 0z" fill-rule="evenodd"/><path fill="#000000" fill-opacity="0.0" d="m44.985203 262.6615l0 30.551178" fill-rule="evenodd"/><path stroke="#000000" stroke-width="1.0" stroke-linejoin="round" stroke-linecap="butt" d="m44.985203 262.6615l0 30.551178" fill-rule="evenodd"/><path fill="#000000" fill-opacity="0.0" d="m143.04305 330.20276l-19.370079 36.661438" fill-rule="evenodd"/><path stroke="#000000" stroke-width="1.0" stroke-linejoin="round" stroke-linecap="butt" d="m143.04305 330.20276l-19.370079 36.661438" fill-rule="evenodd"/><path fill="#000000" fill-opacity="0.0" d="m171.90636 330.20276l23.118118 36.661438" fill-rule="evenodd"/><path stroke="#000000" stroke-width="1.0" stroke-linejoin="round" stroke-linecap="butt" d="m171.90636 330.20276l23.118118 36.661438" fill-rule="evenodd"/><path fill="#000000" fill-opacity="0.0" d="m278.43832 296.735l-0.06298828 25.165375" fill-rule="evenodd"/><path stroke="#000000" stroke-width="1.0" stroke-linejoin="round" stroke-linecap="butt" d="m278.43832 296.735l-0.06298828 25.165375" fill-rule="evenodd"/><path fill="#ffffff" d="m257.95108 342.78482l0 0c0 -11.532745 9.137634 -20.881897 20.409454 -20.881897l0 0c5.4129333 0 10.6041565 2.2000427 14.431671 6.1161804c3.8274841 3.9161072 5.977783 9.227478 5.977783 14.765717l0 0c0 11.532745 -9.137634 20.881897 -20.409454 20.881897l0 0c-11.27182 0 -20.409454 -9.349152 -20.409454 -20.881897z" fill-rule="evenodd"/><path stroke="#000000" stroke-width="1.0" stroke-linejoin="round" stroke-linecap="butt" d="m257.95108 342.78482l0 0c0 -11.532745 9.137634 -20.881897 20.409454 -20.881897l0 0c5.4129333 0 10.6041565 2.2000427 14.431671 6.1161804c3.8274841 3.9161072 5.977783 9.227478 5.977783 14.765717l0 0c0 11.532745 -9.137634 20.881897 -20.409454 20.881897l0 0c-11.27182 0 -20.409454 -9.349152 -20.409454 -20.881897z" fill-rule="evenodd"/><path fill="#000000" fill-opacity="0.0" d="m278.22964 141.9559l-0.88186646 -47.87401" fill-rule="evenodd"/><path stroke="#000000" stroke-width="1.0" stroke-linejoin="round" stroke-linecap="butt" d="m278.22964 141.9559l-0.88186646 -47.87401" fill-rule="evenodd"/><path fill="#000000" fill-opacity="0.0" d="m291.66318 198.71681l-0.88186646 -47.87401" fill-rule="evenodd"/><path stroke="#000000" stroke-width="1.0" stroke-linejoin="round" stroke-linecap="butt" d="m291.66318 198.71681l-0.88186646 -47.87401" fill-rule="evenodd"/><path fill="#000000" fill-opacity="0.0" d="m267.0477 198.71681l-0.881897 -47.87401" fill-rule="evenodd"/><path stroke="#000000" stroke-width="1.0" stroke-linejoin="round" stroke-linecap="butt" d="m267.0477 198.71681l-0.881897 -47.87401" fill-rule="evenodd"/><path fill="#cfe2f3" d="m253.72824 172.61113l0 -24.362198l0 0c0 -13.45488 10.850922 -24.362206 24.236206 -24.362206c13.385315 0 24.236237 10.907326 24.236237 24.362206l0 24.362198z" fill-rule="evenodd"/><path stroke="#000000" stroke-width="1.0" stroke-linejoin="round" stroke-linecap="butt" d="m253.72824 172.61113l0 -24.362198l0 0c0 -13.45488 10.850922 -24.362206 24.236206 -24.362206c13.385315 0 24.236237 10.907326 24.236237 24.362206l0 24.362198z" fill-rule="evenodd"/><path fill="#ffffff" d="m229.35732 394.2181l30.425186 0l0 29.417328l-30.425186 0z" fill-rule="evenodd"/><path stroke="#000000" stroke-width="1.0" stroke-linejoin="round" stroke-linecap="butt" d="m229.35732 394.2181l30.425186 0l0 29.417328l-30.425186 0z" fill-rule="evenodd"/><path fill="#ffffff" d="m300.68933 394.2181l30.425201 0l0 29.417328l-30.425201 0z" fill-rule="evenodd"/><path stroke="#000000" stroke-width="1.0" stroke-linejoin="round" stroke-linecap="butt" d="m300.68933 394.2181l30.425201 0l0 29.417328l-30.425201 0z" fill-rule="evenodd"/><path fill="#000000" fill-opacity="0.0" d="m263.92886 357.55054l-19.370071 36.661438" fill-rule="evenodd"/><path stroke="#000000" stroke-width="1.0" stroke-linejoin="round" stroke-linecap="butt" d="m263.92886 357.55054l-19.370071 36.661438" fill-rule="evenodd"/><path fill="#000000" fill-opacity="0.0" d="m292.7922 357.55054l23.118103 36.661438" fill-rule="evenodd"/><path stroke="#000000" stroke-width="1.0" stroke-linejoin="round" stroke-linecap="butt" d="m292.7922 357.55054l23.118103 36.661438" fill-rule="evenodd"/><path fill="#000000" fill-opacity="0.0" d="m277.43008 233.97252l0 30.551193" fill-rule="evenodd"/><path stroke="#000000" stroke-width="1.0" stroke-linejoin="round" stroke-linecap="butt" d="m277.43008 233.97252l0 30.551193" fill-rule="evenodd"/><path fill="#000000" fill-opacity="0.0" d="m400.29276 289.54797l-19.433075 31.275574" fill-rule="evenodd"/><path stroke="#000000" stroke-width="1.0" stroke-linejoin="round" stroke-linecap="butt" d="m400.29276 289.54797l-19.433075 31.275574" fill-rule="evenodd"/><path fill="#20124d" d="m360.44714 341.71396l0 0c0 -11.532745 9.137634 -20.881897 20.409454 -20.881897l0 0c5.4129333 0 10.6041565 2.2000427 14.431671 6.11615c3.8274841 3.9161377 5.977783 9.227509 5.977783 14.765747l0 0c0 11.532745 -9.137634 20.881866 -20.409454 20.881866l0 0c-11.27182 0 -20.409454 -9.349121 -20.409454 -20.881866z" fill-rule="evenodd"/><path stroke="#000000" stroke-width="1.0" stroke-linejoin="round" stroke-linecap="butt" d="m360.44714 341.71396l0 0c0 -11.532745 9.137634 -20.881897 20.409454 -20.881897l0 0c5.4129333 0 10.6041565 2.2000427 14.431671 6.11615c3.8274841 3.9161377 5.977783 9.227509 5.977783 14.765747l0 0c0 11.532745 -9.137634 20.881866 -20.409454 20.881866l0 0c-11.27182 0 -20.409454 -9.349121 -20.409454 -20.881866z" fill-rule="evenodd"/><path fill="#ffffff" d="m365.6434 393.14725l30.425201 0l0 29.417328l-30.425201 0z" fill-rule="evenodd"/><path stroke="#000000" stroke-width="1.0" stroke-linejoin="round" stroke-linecap="butt" d="m365.6434 393.14725l30.425201 0l0 29.417328l-30.425201 0z" fill-rule="evenodd"/><path fill="#ffffff" d="m436.97543 393.14725l30.425201 0l0 29.417328l-30.425201 0z" fill-rule="evenodd"/><path stroke="#000000" stroke-width="1.0" stroke-linejoin="round" stroke-linecap="butt" d="m436.97543 393.14725l30.425201 0l0 29.417328l-30.425201 0z" fill-rule="evenodd"/><path fill="#000000" fill-opacity="0.0" d="m380.8566 362.59583l0 30.551208" fill-rule="evenodd"/><path stroke="#000000" stroke-width="1.0" stroke-linejoin="round" stroke-linecap="butt" d="m380.8566 362.59583l0 30.551208" fill-rule="evenodd"/><path fill="#000000" fill-opacity="0.0" d="m451.90384 362.59583l0.28347778 30.551208" fill-rule="evenodd"/><path stroke="#000000" stroke-width="1.0" stroke-linejoin="round" stroke-linecap="butt" d="m451.90384 362.59583l0.28347778 30.551208" fill-rule="evenodd"/><path fill="#000000" fill-opacity="0.0" d="m413.7162 232.90166l0 30.551193" fill-rule="evenodd"/><path stroke="#000000" stroke-width="1.0" stroke-linejoin="round" stroke-linecap="butt" d="m413.7162 232.90166l0 30.551193" fill-rule="evenodd"/><path fill="#20124d" d="m258.02887 275.8531l0 0c0 -11.532745 9.137634 -20.881882 20.409454 -20.881882l0 0c5.4129333 0 10.6041565 2.200058 14.431671 6.116165c3.8275146 3.9161072 5.977783 9.227509 5.977783 14.765717l0 0c0 11.532776 -9.137634 20.881897 -20.409454 20.881897l0 0c-11.27182 0 -20.409454 -9.349121 -20.409454 -20.881897z" fill-rule="evenodd"/><path stroke="#000000" stroke-width="1.0" stroke-linejoin="round" stroke-linecap="butt" d="m258.02887 275.8531l0 0c0 -11.532745 9.137634 -20.881882 20.409454 -20.881882l0 0c5.4129333 0 10.6041565 2.200058 14.431671 6.116165c3.8275146 3.9161072 5.977783 9.227509 5.977783 14.765717l0 0c0 11.532776 -9.137634 20.881897 -20.409454 20.881897l0 0c-11.27182 0 -20.409454 -9.349121 -20.409454 -20.881897z" fill-rule="evenodd"/><path fill="#ffffff" d="m394.31497 274.78223l0 0c0 -11.532745 9.137604 -20.881882 20.409454 -20.881882l0 0c5.412903 0 10.604126 2.200058 14.431641 6.116165c3.8275146 3.9161072 5.977783 9.227509 5.977783 14.765717l0 0c0 11.532745 -9.137604 20.881897 -20.409424 20.881897l0 0c-11.271851 0 -20.409454 -9.349152 -20.409454 -20.881897z" fill-rule="evenodd"/><path stroke="#000000" stroke-width="1.0" stroke-linejoin="round" stroke-linecap="butt" d="m394.31497 274.78223l0 0c0 -11.532745 9.137604 -20.881882 20.409454 -20.881882l0 0c5.412903 0 10.604126 2.200058 14.431641 6.116165c3.8275146 3.9161072 5.977783 9.227509 5.977783 14.765717l0 0c0 11.532745 -9.137604 20.881897 -20.409424 20.881897l0 0c-11.271851 0 -20.409454 -9.349152 -20.409454 -20.881897z" fill-rule="evenodd"/><path fill="#000000" fill-opacity="0.0" d="m411.2152 140.88504l0.5354309 -45.732285" fill-rule="evenodd"/><path stroke="#000000" stroke-width="1.0" stroke-linejoin="round" stroke-linecap="butt" d="m411.2152 140.88504l0.5354309 -45.732285" fill-rule="evenodd"/><path fill="#000000" fill-opacity="0.0" d="m423.7257 194.87534l0.03152466 -45.10237" fill-rule="evenodd"/><path stroke="#000000" stroke-width="1.0" stroke-linejoin="round" stroke-linecap="butt" d="m423.7257 194.87534l0.03152466 -45.10237" fill-rule="evenodd"/><path fill="#000000" fill-opacity="0.0" d="m399.22177 195.44489l-0.06298828 -45.669296" fill-rule="evenodd"/><path stroke="#000000" stroke-width="1.0" stroke-linejoin="round" stroke-linecap="butt" d="m399.22177 195.44489l-0.06298828 -45.669296" fill-rule="evenodd"/><path fill="#cfe2f3" d="m435.05682 129.93481l0 45.58618c0 -5.035309 -10.792755 -9.117233 -24.106293 -9.117233c-13.313538 0 -24.106293 4.0819244 -24.106293 9.117233l0 -45.58618l0 0c0 -5.035301 10.792755 -9.117226 24.106293 -9.117226c13.313538 0 24.106293 4.0819244 24.106293 9.117226z" fill-rule="evenodd"/><path stroke="#000000" stroke-width="1.0" stroke-linejoin="round" stroke-linecap="butt" d="m435.05682 129.93481l0 45.58618c0 -5.035309 -10.792755 -9.117233 -24.106293 -9.117233c-13.313538 0 -24.106293 4.0819244 -24.106293 9.117233l0 -45.58618l0 0c0 -5.035301 10.792755 -9.117226 24.106293 -9.117226c13.313538 0 24.106293 4.0819244 24.106293 9.117226z" fill-rule="evenodd"/><path fill="#20124d" d="m431.4944 341.71396l0 0c0 -11.532745 9.137634 -20.881897 20.409454 -20.881897l0 0c5.4129333 0 10.6041565 2.2000427 14.431671 6.11615c3.8275146 3.9161377 5.977783 9.227509 5.977783 14.765747l0 0c0 11.532745 -9.137634 20.881866 -20.409454 20.881866l0 0c-11.27182 0 -20.409454 -9.349121 -20.409454 -20.881866z" fill-rule="evenodd"/><path stroke="#000000" stroke-width="1.0" stroke-linejoin="round" stroke-linecap="butt" d="m431.4944 341.71396l0 0c0 -11.532745 9.137634 -20.881897 20.409454 -20.881897l0 0c5.4129333 0 10.6041565 2.2000427 14.431671 6.11615c3.8275146 3.9161377 5.977783 9.227509 5.977783 14.765747l0 0c0 11.532745 -9.137634 20.881866 -20.409454 20.881866l0 0c-11.27182 0 -20.409454 -9.349121 -20.409454 -20.881866z" fill-rule="evenodd"/><path fill="#000000" fill-opacity="0.0" d="m429.15607 289.54797l22.740173 31.275574" fill-rule="evenodd"/><path stroke="#000000" stroke-width="1.0" stroke-linejoin="round" stroke-linecap="butt" d="m429.15607 289.54797l22.740173 31.275574" fill-rule="evenodd"/><path fill="#000000" fill-opacity="0.0" d="m582.41205 94.458534l0.5354614 -45.732285" fill-rule="evenodd"/><path stroke="#000000" stroke-width="1.0" stroke-linejoin="round" stroke-linecap="butt" d="m582.41205 94.458534l0.5354614 -45.732285" fill-rule="evenodd"/><path fill="#000000" fill-opacity="0.0" d="m597.9575 190.07565l-0.72436523 -84.47244" fill-rule="evenodd"/><path stroke="#000000" stroke-width="1.0" stroke-linejoin="round" stroke-linecap="butt" d="m597.9575 190.07565l-0.72436523 -84.47244" fill-rule="evenodd"/><path fill="#000000" fill-opacity="0.0" d="m568.8867 144.73065l-0.6658325 -38.24656" fill-rule="evenodd"/><path stroke="#000000" stroke-width="1.0" stroke-linejoin="round" stroke-linecap="butt" d="m568.8867 144.73065l-0.6658325 -38.24656" fill-rule="evenodd"/><path fill="#000000" fill-opacity="0.0" d="m579.02905 190.07693l-0.6658325 -38.24655" fill-rule="evenodd"/><path stroke="#000000" stroke-width="1.0" stroke-linejoin="round" stroke-linecap="butt" d="m579.02905 190.07693l-0.6658325 -38.24655" fill-rule="evenodd"/><path fill="#000000" fill-opacity="0.0" d="m560.44434 190.07693l-0.6658325 -38.24655" fill-rule="evenodd"/><path stroke="#000000" stroke-width="1.0" stroke-linejoin="round" stroke-linecap="butt" d="m560.44434 190.07693l-0.6658325 -38.24655" fill-rule="evenodd"/><path fill="#cfe2f3" d="m550.3881 169.2211l0 -19.462952l0 0c0 -10.7491 8.192444 -19.462967 18.29834 -19.462967c10.105896 0 18.2984 8.713867 18.2984 19.462967l0 19.462952z" fill-rule="evenodd"/><path stroke="#000000" stroke-width="1.0" stroke-linejoin="round" stroke-linecap="butt" d="m550.3881 169.2211l0 -19.462952l0 0c0 -10.7491 8.192444 -19.462967 18.29834 -19.462967c10.105896 0 18.2984 8.713867 18.2984 19.462967l0 19.462952z" fill-rule="evenodd"/><path fill="#cfe2f3" d="m606.25366 83.50831l0 45.586174c0 -5.035301 -10.792725 -9.117226 -24.106262 -9.117226c-13.313538 0 -24.106323 4.0819244 -24.106323 9.117226l0 -45.586174l0 0c0 -5.035309 10.792786 -9.117233 24.106323 -9.117233c13.313538 0 24.106262 4.0819244 24.106262 9.117233z" fill-rule="evenodd"/><path stroke="#000000" stroke-width="1.0" stroke-linejoin="round" stroke-linecap="butt" d="m606.25366 83.50831l0 45.586174c0 -5.035301 -10.792725 -9.117226 -24.106262 -9.117226c-13.313538 0 -24.106323 4.0819244 -24.106323 9.117226l0 -45.586174l0 0c0 -5.035309 10.792786 -9.117233 24.106323 -9.117233c13.313538 0 24.106262 4.0819244 24.106262 9.117233z" fill-rule="evenodd"/><path fill="#000000" fill-opacity="0.0" d="m579.3294 265.4699l-0.06298828 25.165344" fill-rule="evenodd"/><path stroke="#000000" stroke-width="1.0" stroke-linejoin="round" stroke-linecap="butt" d="m579.3294 265.4699l-0.06298828 25.165344" fill-rule="evenodd"/><path fill="#ffffff" d="m558.84216 311.5197l0 0c0 -11.532745 9.137634 -20.881866 20.409424 -20.881866l0 0c5.412964 0 10.604187 2.2000427 14.431702 6.11615c3.8275146 3.9161072 5.977783 9.227509 5.977783 14.765717l0 0c0 11.532745 -9.137634 20.881897 -20.409485 20.881897l0 0c-11.27179 0 -20.409424 -9.349152 -20.409424 -20.881897z" fill-rule="evenodd"/><path stroke="#000000" stroke-width="1.0" stroke-linejoin="round" stroke-linecap="butt" d="m558.84216 311.5197l0 0c0 -11.532745 9.137634 -20.881866 20.409424 -20.881866l0 0c5.412964 0 10.604187 2.2000427 14.431702 6.11615c3.8275146 3.9161072 5.977783 9.227509 5.977783 14.765717l0 0c0 11.532745 -9.137634 20.881897 -20.409485 20.881897l0 0c-11.27179 0 -20.409424 -9.349152 -20.409424 -20.881897z" fill-rule="evenodd"/><path fill="#ffffff" d="m486.43213 425.08688l30.42517 0l0 29.417328l-30.42517 0z" fill-rule="evenodd"/><path stroke="#000000" stroke-width="1.0" stroke-linejoin="round" stroke-linecap="butt" d="m486.43213 425.08688l30.42517 0l0 29.417328l-30.42517 0z" fill-rule="evenodd"/><path fill="#ffffff" d="m550.03973 425.08688l30.42517 0l0 29.417328l-30.42517 0z" fill-rule="evenodd"/><path stroke="#000000" stroke-width="1.0" stroke-linejoin="round" stroke-linecap="butt" d="m550.03973 425.08688l30.42517 0l0 29.417328l-30.42517 0z" fill-rule="evenodd"/><path fill="#000000" fill-opacity="0.0" d="m520.8258 384.48846l-19.181091 40.59842" fill-rule="evenodd"/><path stroke="#000000" stroke-width="1.0" stroke-linejoin="round" stroke-linecap="butt" d="m520.8258 384.48846l-19.181091 40.59842" fill-rule="evenodd"/><path fill="#000000" fill-opacity="0.0" d="m542.66754 394.44293l22.582642 30.64566" fill-rule="evenodd"/><path stroke="#000000" stroke-width="1.0" stroke-linejoin="round" stroke-linecap="butt" d="m542.66754 394.44293l22.582642 30.64566" fill-rule="evenodd"/><path fill="#000000" fill-opacity="0.0" d="m578.32117 202.70743l0 30.551178" fill-rule="evenodd"/><path stroke="#000000" stroke-width="1.0" stroke-linejoin="round" stroke-linecap="butt" d="m578.32117 202.70743l0 30.551178" fill-rule="evenodd"/><path fill="#20124d" d="m558.92 244.58801l0 0c0 -11.532745 9.137573 -20.881897 20.409424 -20.881897l0 0c5.412903 0 10.604126 2.200058 14.431641 6.116165c3.8275146 3.9161224 5.977783 9.227509 5.977783 14.765732l0 0c0 11.532745 -9.137573 20.881897 -20.409424 20.881897l0 0c-11.271851 0 -20.409424 -9.349152 -20.409424 -20.881897z" fill-rule="evenodd"/><path stroke="#000000" stroke-width="1.0" stroke-linejoin="round" stroke-linecap="butt" d="m558.92 244.58801l0 0c0 -11.532745 9.137573 -20.881897 20.409424 -20.881897l0 0c5.412903 0 10.604126 2.200058 14.431641 6.116165c3.8275146 3.9161224 5.977783 9.227509 5.977783 14.765732l0 0c0 11.532745 -9.137573 20.881897 -20.409424 20.881897l0 0c-11.271851 0 -20.409424 -9.349152 -20.409424 -20.881897z" fill-rule="evenodd"/><path fill="#ffffff" d="m507.82642 379.67722l0 0c0 -11.532745 9.137634 -20.881897 20.409424 -20.881897l0 0c5.412964 0 10.604187 2.2000427 14.431702 6.11615c3.8275146 3.9161377 5.977783 9.227509 5.977783 14.765747l0 0c0 11.532745 -9.137634 20.881866 -20.409485 20.881866l0 0c-11.27179 0 -20.409424 -9.349121 -20.409424 -20.881866z" fill-rule="evenodd"/><path stroke="#000000" stroke-width="1.0" stroke-linejoin="round" stroke-linecap="butt" d="m507.82642 379.67722l0 0c0 -11.532745 9.137634 -20.881897 20.409424 -20.881897l0 0c5.412964 0 10.604187 2.2000427 14.431702 6.11615c3.8275146 3.9161377 5.977783 9.227509 5.977783 14.765747l0 0c0 11.532745 -9.137634 20.881866 -20.409485 20.881866l0 0c-11.27179 0 -20.409424 -9.349121 -20.409424 -20.881866z" fill-rule="evenodd"/><path fill="#20124d" d="m604.479 379.67725l0 0c0 -11.532745 9.137634 -20.881897 20.409485 -20.881897l0 0c5.412903 0 10.604126 2.2000732 14.431641 6.1161804c3.8275146 3.9161072 5.977783 9.227509 5.977783 14.765717l0 0c0 11.532745 -9.137634 20.881897 -20.409424 20.881897l0 0c-11.271851 0 -20.409485 -9.349152 -20.409485 -20.881897z" fill-rule="evenodd"/><path stroke="#000000" stroke-width="1.0" stroke-linejoin="round" stroke-linecap="butt" d="m604.479 379.67725l0 0c0 -11.532745 9.137634 -20.881897 20.409485 -20.881897l0 0c5.412903 0 10.604126 2.2000732 14.431641 6.1161804c3.8275146 3.9161072 5.977783 9.227509 5.977783 14.765717l0 0c0 11.532745 -9.137634 20.881897 -20.409424 20.881897l0 0c-11.271851 0 -20.409485 -9.349152 -20.409485 -20.881897z" fill-rule="evenodd"/><path fill="#ffffff" d="m609.67755 425.08688l30.42517 0l0 29.417328l-30.42517 0z" fill-rule="evenodd"/><path stroke="#000000" stroke-width="1.0" stroke-linejoin="round" stroke-linecap="butt" d="m609.67755 425.08688l30.42517 0l0 29.417328l-30.42517 0z" fill-rule="evenodd"/><path fill="#000000" fill-opacity="0.0" d="m624.8885 400.55914l0 24.53543" fill-rule="evenodd"/><path stroke="#000000" stroke-width="1.0" stroke-linejoin="round" stroke-linecap="butt" d="m624.8885 400.55914l0 24.53543" fill-rule="evenodd"/><path fill="#000000" fill-opacity="0.0" d="m528.23584 358.79532l36.59845 -32.503937" fill-rule="evenodd"/><path stroke="#000000" stroke-width="1.0" stroke-linejoin="round" stroke-linecap="butt" d="m528.23584 358.79532l36.59845 -32.503937" fill-rule="evenodd"/><path fill="#000000" fill-opacity="0.0" d="m624.8885 358.79535l-31.212646 -32.503937" fill-rule="evenodd"/><path stroke="#000000" stroke-width="1.0" stroke-linejoin="round" stroke-linecap="butt" d="m624.8885 358.79535l-31.212646 -32.503937" fill-rule="evenodd"/><path fill="#000000" fill-opacity="0.0" d="m784.89636 273.46466l-0.06304932 25.165344" fill-rule="evenodd"/><path stroke="#000000" stroke-width="1.0" stroke-linejoin="round" stroke-linecap="butt" d="m784.89636 273.46466l-0.06304932 25.165344" fill-rule="evenodd"/><path fill="#ffffff" d="m764.40906 319.51447l0 0c0 -11.532745 9.137634 -20.881866 20.409485 -20.881866l0 0c5.412903 0 10.604126 2.2000427 14.431641 6.11615c3.8275146 3.9161072 5.977783 9.227509 5.977783 14.765717l0 0c0 11.532745 -9.137573 20.881897 -20.409424 20.881897l0 0c-11.271851 0 -20.409485 -9.349152 -20.409485 -20.881897z" fill-rule="evenodd"/><path stroke="#000000" stroke-width="1.0" stroke-linejoin="round" stroke-linecap="butt" d="m764.40906 319.51447l0 0c0 -11.532745 9.137634 -20.881866 20.409485 -20.881866l0 0c5.412903 0 10.604126 2.2000427 14.431641 6.11615c3.8275146 3.9161072 5.977783 9.227509 5.977783 14.765717l0 0c0 11.532745 -9.137573 20.881897 -20.409424 20.881897l0 0c-11.271851 0 -20.409485 -9.349152 -20.409485 -20.881897z" fill-rule="evenodd"/><path fill="#ffffff" d="m697.9334 433.08163l30.425232 0l0 29.417328l-30.425232 0z" fill-rule="evenodd"/><path stroke="#000000" stroke-width="1.0" stroke-linejoin="round" stroke-linecap="butt" d="m697.9334 433.08163l30.425232 0l0 29.417328l-30.425232 0z" fill-rule="evenodd"/><path fill="#ffffff" d="m750.2471 433.08163l30.425232 0l0 29.417328l-30.425232 0z" fill-rule="evenodd"/><path stroke="#000000" stroke-width="1.0" stroke-linejoin="round" stroke-linecap="butt" d="m750.2471 433.08163l30.425232 0l0 29.417328l-30.425232 0z" fill-rule="evenodd"/><path fill="#000000" fill-opacity="0.0" d="m732.32715 392.48322l-19.181091 40.59842" fill-rule="evenodd"/><path stroke="#000000" stroke-width="1.0" stroke-linejoin="round" stroke-linecap="butt" d="m732.32715 392.48322l-19.181091 40.59842" fill-rule="evenodd"/><path fill="#000000" fill-opacity="0.0" d="m748.23444 402.43768l17.228333 30.64566" fill-rule="evenodd"/><path stroke="#000000" stroke-width="1.0" stroke-linejoin="round" stroke-linecap="butt" d="m748.23444 402.43768l17.228333 30.64566" fill-rule="evenodd"/><path fill="#000000" fill-opacity="0.0" d="m784.7861 105.86798l0.5354614 -45.732285" fill-rule="evenodd"/><path stroke="#000000" stroke-width="1.0" stroke-linejoin="round" stroke-linecap="butt" d="m784.7861 105.86798l0.5354614 -45.732285" fill-rule="evenodd"/><path fill="#000000" fill-opacity="0.0" d="m765.7896 156.14009l-0.6658325 -38.24655" fill-rule="evenodd"/><path stroke="#000000" stroke-width="1.0" stroke-linejoin="round" stroke-linecap="butt" d="m765.7896 156.14009l-0.6658325 -38.24655" fill-rule="evenodd"/><path fill="#000000" fill-opacity="0.0" d="m775.9319 201.48639l-0.6657715 -38.24655" fill-rule="evenodd"/><path stroke="#000000" stroke-width="1.0" stroke-linejoin="round" stroke-linecap="butt" d="m775.9319 201.48639l-0.6657715 -38.24655" fill-rule="evenodd"/><path fill="#000000" fill-opacity="0.0" d="m757.3472 201.48639l-0.6658325 -38.24655" fill-rule="evenodd"/><path stroke="#000000" stroke-width="1.0" stroke-linejoin="round" stroke-linecap="butt" d="m757.3472 201.48639l-0.6658325 -38.24655" fill-rule="evenodd"/><path fill="#cfe2f3" d="m747.291 180.63055l0 -19.462967l0 0c0 -10.7491 8.192444 -19.462967 18.29834 -19.462967c10.105896 0 18.29834 8.713867 18.29834 19.462967l0 19.462967z" fill-rule="evenodd"/><path stroke="#000000" stroke-width="1.0" stroke-linejoin="round" stroke-linecap="butt" d="m747.291 180.63055l0 -19.462967l0 0c0 -10.7491 8.192444 -19.462967 18.29834 -19.462967c10.105896 0 18.29834 8.713867 18.29834 19.462967l0 19.462967z" fill-rule="evenodd"/><path fill="#000000" fill-opacity="0.0" d="m802.3854 156.14009l-0.6658325 -38.24655" fill-rule="evenodd"/><path stroke="#000000" stroke-width="1.0" stroke-linejoin="round" stroke-linecap="butt" d="m802.3854 156.14009l-0.6658325 -38.24655" fill-rule="evenodd"/><path fill="#000000" fill-opacity="0.0" d="m812.5277 201.48639l-0.6658325 -38.24655" fill-rule="evenodd"/><path stroke="#000000" stroke-width="1.0" stroke-linejoin="round" stroke-linecap="butt" d="m812.5277 201.48639l-0.6658325 -38.24655" fill-rule="evenodd"/><path fill="#000000" fill-opacity="0.0" d="m793.943 201.48639l-0.6658325 -38.24655" fill-rule="evenodd"/><path stroke="#000000" stroke-width="1.0" stroke-linejoin="round" stroke-linecap="butt" d="m793.943 201.48639l-0.6658325 -38.24655" fill-rule="evenodd"/><path fill="#cfe2f3" d="m783.88684 180.63055l0 -19.462967l0 0c0 -10.7491 8.192444 -19.462967 18.29834 -19.462967c10.105896 0 18.29834 8.713867 18.29834 19.462967l0 19.462967z" fill-rule="evenodd"/><path stroke="#000000" stroke-width="1.0" stroke-linejoin="round" stroke-linecap="butt" d="m783.88684 180.63055l0 -19.462967l0 0c0 -10.7491 8.192444 -19.462967 18.29834 -19.462967c10.105896 0 18.29834 8.713867 18.29834 19.462967l0 19.462967z" fill-rule="evenodd"/><path fill="#cfe2f3" d="m807.8236 94.2196l0 45.586174c0 -5.035309 -10.792725 -9.117233 -24.106262 -9.117233c-13.313538 0 -24.106323 4.0819244 -24.106323 9.117233l0 -45.586174l0 0c0 -5.035309 10.792786 -9.117233 24.106323 -9.117233c13.313538 0 24.106262 4.0819244 24.106262 9.117233z" fill-rule="evenodd"/><path stroke="#000000" stroke-width="1.0" stroke-linejoin="round" stroke-linecap="butt" d="m807.8236 94.2196l0 45.586174c0 -5.035309 -10.792725 -9.117233 -24.106262 -9.117233c-13.313538 0 -24.106323 4.0819244 -24.106323 9.117233l0 -45.586174l0 0c0 -5.035309 10.792786 -9.117233 24.106323 -9.117233c13.313538 0 24.106262 4.0819244 24.106262 9.117233z" fill-rule="evenodd"/><path fill="#000000" fill-opacity="0.0" d="m783.88806 210.70218l0 30.551178" fill-rule="evenodd"/><path stroke="#000000" stroke-width="1.0" stroke-linejoin="round" stroke-linecap="butt" d="m783.88806 210.70218l0 30.551178" fill-rule="evenodd"/><path fill="#20124d" d="m764.4869 252.58276l0 0c0 -11.532745 9.137634 -20.881897 20.409485 -20.881897l0 0c5.412903 0 10.604126 2.200058 14.431641 6.116165c3.8275146 3.9161224 5.977783 9.227509 5.977783 14.765732l0 0c0 11.532745 -9.137634 20.881897 -20.409424 20.881897l0 0c-11.271851 0 -20.409485 -9.349152 -20.409485 -20.881897z" fill-rule="evenodd"/><path stroke="#000000" stroke-width="1.0" stroke-linejoin="round" stroke-linecap="butt" d="m764.4869 252.58276l0 0c0 -11.532745 9.137634 -20.881897 20.409485 -20.881897l0 0c5.412903 0 10.604126 2.200058 14.431641 6.116165c3.8275146 3.9161224 5.977783 9.227509 5.977783 14.765732l0 0c0 11.532745 -9.137634 20.881897 -20.409424 20.881897l0 0c-11.271851 0 -20.409485 -9.349152 -20.409485 -20.881897z" fill-rule="evenodd"/><path fill="#ffffff" d="m713.3933 387.67197l0 0c0 -11.532745 9.137634 -20.881897 20.409485 -20.881897l0 0c5.412903 0 10.604126 2.2000427 14.431641 6.11615c3.8275146 3.9161377 5.977783 9.227509 5.977783 14.765747l0 0c0 11.532745 -9.137573 20.881866 -20.409424 20.881866l0 0c-11.271851 0 -20.409485 -9.349121 -20.409485 -20.881866z" fill-rule="evenodd"/><path stroke="#000000" stroke-width="1.0" stroke-linejoin="round" stroke-linecap="butt" d="m713.3933 387.67197l0 0c0 -11.532745 9.137634 -20.881897 20.409485 -20.881897l0 0c5.412903 0 10.604126 2.2000427 14.431641 6.11615c3.8275146 3.9161377 5.977783 9.227509 5.977783 14.765747l0 0c0 11.532745 -9.137573 20.881866 -20.409424 20.881866l0 0c-11.271851 0 -20.409485 -9.349121 -20.409485 -20.881866z" fill-rule="evenodd"/><path fill="#000000" fill-opacity="0.0" d="m733.8028 366.79007l36.59839 -32.503937" fill-rule="evenodd"/><path stroke="#000000" stroke-width="1.0" stroke-linejoin="round" stroke-linecap="butt" d="m733.8028 366.79007l36.59839 -32.503937" fill-rule="evenodd"/><path fill="#000000" fill-opacity="0.0" d="m842.7162 366.78876l-43.4646 -32.503937" fill-rule="evenodd"/><path stroke="#000000" stroke-width="1.0" stroke-linejoin="round" stroke-linecap="butt" d="m842.7162 366.78876l-43.4646 -32.503937" fill-rule="evenodd"/><path fill="#ffffff" d="m802.5581 433.08032l30.42517 0l0 29.417328l-30.42517 0z" fill-rule="evenodd"/><path stroke="#000000" stroke-width="1.0" stroke-linejoin="round" stroke-linecap="butt" d="m802.5581 433.08032l30.42517 0l0 29.417328l-30.42517 0z" fill-rule="evenodd"/><path fill="#ffffff" d="m854.87177 433.08032l30.42517 0l0 29.417328l-30.42517 0z" fill-rule="evenodd"/><path stroke="#000000" stroke-width="1.0" stroke-linejoin="round" stroke-linecap="butt" d="m854.87177 433.08032l30.42517 0l0 29.417328l-30.42517 0z" fill-rule="evenodd"/><path fill="#000000" fill-opacity="0.0" d="m836.9518 392.4819l-19.181091 40.59842" fill-rule="evenodd"/><path stroke="#000000" stroke-width="1.0" stroke-linejoin="round" stroke-linecap="butt" d="m836.9518 392.4819l-19.181091 40.59842" fill-rule="evenodd"/><path fill="#000000" fill-opacity="0.0" d="m857.1478 402.43637l12.944885 30.64566" fill-rule="evenodd"/><path stroke="#000000" stroke-width="1.0" stroke-linejoin="round" stroke-linecap="butt" d="m857.1478 402.43637l12.944885 30.64566" fill-rule="evenodd"/><path fill="#ffffff" d="m822.3067 387.67065l0 0c0 -11.532745 9.137634 -20.881897 20.409485 -20.881897l0 0c5.412903 0 10.604126 2.2000427 14.431641 6.11615c3.8275146 3.9161377 5.977783 9.227509 5.977783 14.765747l0 0c0 11.532745 -9.137634 20.881866 -20.409424 20.881866l0 0c-11.271851 0 -20.409485 -9.349121 -20.409485 -20.881866z" fill-rule="evenodd"/><path stroke="#000000" stroke-width="1.0" stroke-linejoin="round" stroke-linecap="butt" d="m822.3067 387.67065l0 0c0 -11.532745 9.137634 -20.881897 20.409485 -20.881897l0 0c5.412903 0 10.604126 2.2000427 14.431641 6.11615c3.8275146 3.9161377 5.977783 9.227509 5.977783 14.765747l0 0c0 11.532745 -9.137634 20.881866 -20.409424 20.881866l0 0c-11.271851 0 -20.409485 -9.349121 -20.409485 -20.881866z" fill-rule="evenodd"/><path fill="#000000" fill-opacity="0.0" d="m18.96588 76.75853l55.874016 0l0 24.53543l-55.874016 0z" fill-rule="evenodd"/><path fill="#000000" d="m29.700254 103.67853l0 -13.359375l1.765625 0l0 13.359375l-1.765625 0zm4.870802 0l0 -13.359375l1.8125 0l7.015625 10.484375l0 -10.484375l1.6875 0l0 13.359375l-1.8125 0l-7.015625 -10.5l0 10.5l-1.6875 0zm17.301071 0l-5.171875 -13.359375l1.921875 0l3.46875 9.703125q0.421875 1.171875 0.703125 2.1875q0.3125 -1.09375 0.71875 -2.1875l3.609375 -9.703125l1.796875 0l-5.234375 13.359375l-1.8125 0z" fill-rule="nonzero"/><path fill="#000000" fill-opacity="0.0" d="m114.32284 69.98688l85.5118 0l0 25.165352l-85.5118 0z" fill-rule="evenodd"/><path fill="#000000" d="m124.74471 96.906876l0 -13.359375l1.8125 0l7.0156174 10.484375l0 -10.484375l1.6875 0l0 13.359375l-1.8125 0l-7.0156174 -10.5l0 10.5l-1.6875 0zm12.019814 0l5.125 -13.359375l1.90625 0l5.46875 13.359375l-2.015625 0l-1.546875 -4.046875l-5.59375 0l-1.46875 4.046875l-1.875 0zm3.859375 -5.484375l4.53125 0l-1.40625 -3.703125q-0.625 -1.6875 -0.9375 -2.765625q-0.265625 1.28125 -0.71875 2.546875l-1.46875 3.921875zm10.037323 5.484375l0 -13.359375l1.8125 0l7.015625 10.484375l0 -10.484375l1.6875 0l0 13.359375l-1.8125 0l-7.015625 -10.5l0 10.5l-1.6875 0zm13.488571 0l0 -13.359375l4.609375 0q1.546875 0 2.375 0.203125q1.140625 0.25 1.953125 0.953125q1.0625 0.890625 1.578125 2.28125q0.53125 1.390625 0.53125 3.171875q0 1.515625 -0.359375 2.703125q-0.359375 1.171875 -0.921875 1.9375q-0.546875 0.765625 -1.203125 1.21875q-0.65625 0.4375 -1.59375 0.671875q-0.9375 0.21875 -2.140625 0.21875l-4.828125 0zm1.765625 -1.578125l2.859375 0q1.3125 0 2.0625 -0.234375q0.75 -0.25 1.203125 -0.703125q0.625 -0.625 0.96875 -1.6875q0.359375 -1.0625 0.359375 -2.578125q0 -2.09375 -0.6875 -3.21875q-0.6875 -1.125 -1.671875 -1.5q-0.703125 -0.28125 -2.28125 -0.28125l-2.8125 0l0 10.203125zm19.660446 0l0 1.578125l-8.828125 0q-0.015625 -0.59375 0.1875 -1.140625q0.34375 -0.90625 1.078125 -1.78125q0.75 -0.875 2.15625 -2.015625q2.171875 -1.78125 2.9375 -2.828125q0.765625 -1.046875 0.765625 -1.96875q0 -0.984375 -0.703125 -1.640625q-0.6875 -0.671875 -1.8125 -0.671875q-1.1875 0 -1.90625 0.71875q-0.703125 0.703125 -0.703125 1.953125l-1.6875 -0.171875q0.171875 -1.890625 1.296875 -2.875q1.140625 -0.984375 3.03125 -0.984375q1.921875 0 3.046875 1.0625q1.125 1.0625 1.125 2.640625q0 0.796875 -0.328125 1.578125q-0.328125 0.78125 -1.09375 1.640625q-0.75 0.84375 -2.53125 2.34375q-1.46875 1.234375 -1.890625 1.6875q-0.421875 0.4375 -0.6875 0.875l6.546875 0z" fill-rule="nonzero"/><path fill="#000000" fill-opacity="0.0" d="m244.55905 52.2231l73.19687 0l0 24.53543l-73.19687 0z" fill-rule="evenodd"/><path fill="#000000" d="m253.5278 79.1431l5.125 -13.359375l1.90625 0l5.46875 13.359375l-2.015625 0l-1.546875 -4.046875l-5.59375 0l-1.46875 4.046875l-1.875 0zm3.859375 -5.484375l4.53125 0l-1.40625 -3.703125q-0.625 -1.6875 -0.9375 -2.765625q-0.265625 1.28125 -0.71875 2.546875l-1.46875 3.921875zm10.037323 5.484375l0 -13.359375l1.8125 0l7.015625 10.484375l0 -10.484375l1.6875 0l0 13.359375l-1.8125 0l-7.015625 -10.5l0 10.5l-1.6875 0zm13.488586 0l0 -13.359375l4.609375 0q1.546875 0 2.375 0.203125q1.140625 0.25 1.953125 0.953125q1.0625 0.890625 1.578125 2.28125q0.53125 1.390625 0.53125 3.171875q0 1.515625 -0.359375 2.703125q-0.359375 1.171875 -0.921875 1.9375q-0.546875 0.765625 -1.203125 1.21875q-0.65625 0.4375 -1.59375 0.671875q-0.9375 0.21875 -2.140625 0.21875l-4.828125 0zm1.765625 -1.578125l2.859375 0q1.3125 0 2.0625 -0.234375q0.75 -0.25 1.203125 -0.703125q0.625 -0.625 0.96875 -1.6875q0.359375 -1.0625 0.359375 -2.578125q0 -2.09375 -0.6875 -3.21875q-0.6875 -1.125 -1.671875 -1.5q-0.703125 -0.28125 -2.28125 -0.28125l-2.8125 0l0 10.203125zm19.66043 0l0 1.578125l-8.828125 0q-0.015625 -0.59375 0.1875 -1.140625q0.34375 -0.90625 1.078125 -1.78125q0.75 -0.875 2.15625 -2.015625q2.171875 -1.78125 2.9375 -2.828125q0.765625 -1.046875 0.765625 -1.96875q0 -0.984375 -0.703125 -1.640625q-0.6875 -0.671875 -1.8125 -0.671875q-1.1875 0 -1.90625 0.71875q-0.703125 0.703125 -0.703125 1.953125l-1.6875 -0.171875q0.171875 -1.890625 1.296875 -2.875q1.140625 -0.984375 3.03125 -0.984375q1.921875 0 3.046875 1.0625q1.125 1.0625 1.125 2.640625q0 0.796875 -0.328125 1.578125q-0.328125 0.78125 -1.09375 1.640625q-0.75 0.84375 -2.53125 2.34375q-1.46875 1.234375 -1.890625 1.6875q-0.421875 0.4375 -0.6875 0.875l6.546875 0z" fill-rule="nonzero"/><path fill="#000000" fill-opacity="0.0" d="m386.84515 52.2231l62.519684 0l0 24.53543l-62.519684 0z" fill-rule="evenodd"/><path fill="#000000" d="m396.7514 72.6431q0 -3.328125 1.78125 -5.203125q1.78125 -1.890625 4.609375 -1.890625q1.84375 0 3.328125 0.890625q1.484375 0.875 2.265625 2.46875q0.78125 1.578125 0.78125 3.578125q0 2.03125 -0.828125 3.640625q-0.8125 1.59375 -2.3125 2.421875q-1.5 0.828125 -3.25 0.828125q-1.875 0 -3.359375 -0.90625q-1.484375 -0.921875 -2.25 -2.5q-0.765625 -1.578125 -0.765625 -3.328125zm1.8125 0.015625q0 2.421875 1.296875 3.8125q1.296875 1.390625 3.265625 1.390625q2.0 0 3.28125 -1.40625q1.28125 -1.40625 1.28125 -3.984375q0 -1.625 -0.546875 -2.84375q-0.546875 -1.21875 -1.609375 -1.875q-1.0625 -0.671875 -2.375 -0.671875q-1.890625 0 -3.25 1.296875q-1.34375 1.28125 -1.34375 4.28125zm13.261414 6.484375l0 -13.359375l5.921875 0q1.78125 0 2.703125 0.359375q0.9375 0.359375 1.484375 1.28125q0.5625 0.90625 0.5625 2.015625q0 1.40625 -0.921875 2.390625q-0.921875 0.96875 -2.84375 1.234375q0.703125 0.34375 1.078125 0.671875q0.765625 0.703125 1.453125 1.765625l2.328125 3.640625l-2.21875 0l-1.765625 -2.78125q-0.78125 -1.203125 -1.28125 -1.828125q-0.5 -0.640625 -0.90625 -0.890625q-0.390625 -0.265625 -0.796875 -0.359375q-0.296875 -0.078125 -0.984375 -0.078125l-2.046875 0l0 5.9375l-1.765625 0zm1.765625 -7.453125l3.796875 0q1.21875 0 1.890625 -0.25q0.6875 -0.265625 1.046875 -0.8125q0.359375 -0.546875 0.359375 -1.1875q0 -0.953125 -0.6875 -1.5625q-0.6875 -0.609375 -2.1875 -0.609375l-4.21875 0l0 4.421875zm19.629211 5.875l0 1.578125l-8.828125 0q-0.015625 -0.59375 0.1875 -1.140625q0.34375 -0.90625 1.078125 -1.78125q0.75 -0.875 2.15625 -2.015625q2.171875 -1.78125 2.9375 -2.828125q0.765625 -1.046875 0.765625 -1.96875q0 -0.984375 -0.703125 -1.640625q-0.6875 -0.671875 -1.8125 -0.671875q-1.1875 0 -1.90625 0.71875q-0.703125 0.703125 -0.703125 1.953125l-1.6875 -0.171875q0.171875 -1.890625 1.296875 -2.875q1.140625 -0.984375 3.03125 -0.984375q1.921875 0 3.046875 1.0625q1.125 1.0625 1.125 2.640625q0 0.796875 -0.328125 1.578125q-0.328125 0.78125 -1.09375 1.640625q-0.75 0.84375 -2.53125 2.34375q-1.46875 1.234375 -1.890625 1.6875q-0.421875 0.4375 -0.6875 0.875l6.546875 0z" fill-rule="nonzero"/><path fill="#cfe2f3" d="m582.9806 76.7573l0 0c-2.5744019 0 -4.661438 -2.4888687 -4.661438 -5.5590515l0 0c0 -3.0701828 2.0870361 -5.559059 4.661438 -5.559059l0 0c2.574463 0 4.661438 2.4888763 4.661438 5.559059l0 0c0 3.0701828 -2.086975 5.5590515 -4.661438 5.5590515z" fill-rule="evenodd"/><path stroke="#000000" stroke-width="1.0" stroke-linejoin="round" stroke-linecap="butt" d="m582.9806 76.7573l0 0c-2.5744019 0 -4.661438 -2.4888687 -4.661438 -5.5590515l0 0c0 -3.0701828 2.0870361 -5.559059 4.661438 -5.559059l0 0c2.574463 0 4.661438 2.4888763 4.661438 5.559059l0 0c0 3.0701828 -2.086975 5.5590515 -4.661438 5.5590515z" fill-rule="evenodd"/><path fill="#cfe2f3" d="m784.8179 88.12738l0 0c-2.5744019 0 -4.661438 -2.4888687 -4.661438 -5.5590515l0 0c0 -3.0701828 2.0870361 -5.559059 4.661438 -5.559059l0 0c2.5744019 0 4.661438 2.4888763 4.661438 5.559059l0 0c0 3.0701828 -2.0870361 5.5590515 -4.661438 5.5590515z" fill-rule="evenodd"/><path stroke="#000000" stroke-width="1.0" stroke-linejoin="round" stroke-linecap="butt" d="m784.8179 88.12738l0 0c-2.5744019 0 -4.661438 -2.4888687 -4.661438 -5.5590515l0 0c0 -3.0701828 2.0870361 -5.559059 4.661438 -5.559059l0 0c2.5744019 0 4.661438 2.4888763 4.661438 5.559059l0 0c0 3.0701828 -2.0870361 5.5590515 -4.661438 5.5590515z" fill-rule="evenodd"/><path fill="#000000" fill-opacity="0.0" d="m550.3884 16.0l82.078735 0l0 24.535435l-82.078735 0z" fill-rule="evenodd"/><path fill="#000000" d="m559.3572 42.92l5.125 -13.359375l1.90625 0l5.46875 13.359375l-2.015625 0l-1.546875 -4.046875l-5.59375 0l-1.46875 4.046875l-1.875 0zm3.859375 -5.484375l4.53125 0l-1.40625 -3.703125q-0.625 -1.6875 -0.9375 -2.765625q-0.265625 1.28125 -0.71875 2.546875l-1.46875 3.921875zm9.5217285 -1.015625q0 -3.328125 1.78125 -5.203125q1.78125 -1.890625 4.609375 -1.890625q1.84375 0 3.328125 0.890625q1.484375 0.875 2.265625 2.46875q0.78125 1.578125 0.78125 3.578125q0 2.03125 -0.828125 3.640625q-0.8125 1.59375 -2.3125 2.421875q-1.5 0.828125 -3.25 0.828125q-1.875 0 -3.359375 -0.90625q-1.484375 -0.921875 -2.25 -2.5q-0.765625 -1.578125 -0.765625 -3.328125zm1.8125 0.015625q0 2.421875 1.296875 3.8125q1.296875 1.390625 3.265625 1.390625q2.0 0 3.28125 -1.40625q1.28125 -1.40625 1.28125 -3.984375q0 -1.625 -0.546875 -2.84375q-0.546875 -1.21875 -1.609375 -1.875q-1.0625 -0.671875 -2.375 -0.671875q-1.890625 0 -3.25 1.296875q-1.34375 1.28125 -1.34375 4.28125zm13.527039 6.484375l0 -13.359375l1.765625 0l0 13.359375l-1.765625 0zm12.839539 -1.578125l0 1.578125l-8.828125 0q-0.015625 -0.59375 0.1875 -1.140625q0.34375 -0.90625 1.078125 -1.78125q0.75 -0.875 2.15625 -2.015625q2.171875 -1.78125 2.9375 -2.828125q0.765625 -1.046875 0.765625 -1.96875q0 -0.984375 -0.703125 -1.640625q-0.6875 -0.671875 -1.8125 -0.671875q-1.1875 0 -1.90625 0.71875q-0.703125 0.703125 -0.703125 1.953125l-1.6875 -0.171875q0.171875 -1.890625 1.296875 -2.875q1.140625 -0.984375 3.03125 -0.984375q1.921875 0 3.046875 1.0625q1.125 1.0625 1.125 2.640625q0 0.796875 -0.328125 1.578125q-0.328125 0.78125 -1.09375 1.640625q-0.75 0.84375 -2.53125 2.34375q-1.46875 1.234375 -1.890625 1.6875q-0.421875 0.4375 -0.6875 0.875l6.546875 0zm7.9382324 1.578125l-1.640625 0l0 -10.453125q-0.59375 0.5625 -1.5625 1.140625q-0.953125 0.5625 -1.71875 0.84375l0 -1.59375q1.375 -0.640625 2.40625 -1.5625q1.03125 -0.921875 1.453125 -1.78125l1.0625 0l0 13.40625z" fill-rule="nonzero"/><path fill="#000000" fill-opacity="0.0" d="m743.77954 19.711287l82.078735 0l0 24.535433l-82.078735 0z" fill-rule="evenodd"/><path fill="#000000" d="m752.7483 46.631283l5.125 -13.359375l1.90625 0l5.46875 13.359375l-2.015625 0l-1.546875 -4.046875l-5.59375 0l-1.46875 4.046875l-1.875 0zm3.859375 -5.484375l4.53125 0l-1.40625 -3.703125q-0.625 -1.6875 -0.9375 -2.765625q-0.265625 1.28125 -0.71875 2.546875l-1.46875 3.921875zm9.5216675 -1.015625q0 -3.328125 1.78125 -5.203125q1.78125 -1.890625 4.609375 -1.890625q1.84375 0 3.328125 0.890625q1.484375 0.875 2.265625 2.46875q0.78125 1.578125 0.78125 3.578125q0 2.03125 -0.828125 3.640625q-0.8125 1.59375 -2.3125 2.421875q-1.5 0.828125 -3.25 0.828125q-1.875 0 -3.359375 -0.90625q-1.484375 -0.921875 -2.25 -2.5q-0.765625 -1.578125 -0.765625 -3.328125zm1.8125 0.015625q0 2.421875 1.296875 3.8125q1.296875 1.390625 3.265625 1.390625q2.0 0 3.28125 -1.40625q1.28125 -1.40625 1.28125 -3.984375q0 -1.625 -0.546875 -2.84375q-0.546875 -1.21875 -1.609375 -1.875q-1.0625 -0.671875 -2.375 -0.671875q-1.890625 0 -3.25 1.296875q-1.34375 1.28125 -1.34375 4.28125zm13.5271 6.484375l0 -13.359375l1.765625 0l0 13.359375l-1.765625 0zm12.839539 -1.578125l0 1.578125l-8.828125 0q-0.015625 -0.59375 0.1875 -1.140625q0.34375 -0.90625 1.078125 -1.78125q0.75 -0.875 2.15625 -2.015625q2.171875 -1.78125 2.9375 -2.828125q0.765625 -1.046875 0.765625 -1.96875q0 -0.984375 -0.703125 -1.640625q-0.6875 -0.671875 -1.8125 -0.671875q-1.1875 0 -1.90625 0.71875q-0.703125 0.703125 -0.703125 1.953125l-1.6875 -0.171875q0.171875 -1.890625 1.296875 -2.875q1.140625 -0.984375 3.03125 -0.984375q1.921875 0 3.046875 1.0625q1.125 1.0625 1.125 2.640625q0 0.796875 -0.328125 1.578125q-0.328125 0.78125 -1.09375 1.640625q-0.75 0.84375 -2.53125 2.34375q-1.46875 1.234375 -1.890625 1.6875q-0.421875 0.4375 -0.6875 0.875l6.546875 0zm10.375732 0l0 1.578125l-8.828125 0q-0.015625 -0.59375 0.1875 -1.140625q0.34375 -0.90625 1.078125 -1.78125q0.75 -0.875 2.15625 -2.015625q2.171875 -1.78125 2.9375 -2.828125q0.765625 -1.046875 0.765625 -1.96875q0 -0.984375 -0.703125 -1.640625q-0.6875 -0.671875 -1.8125 -0.671875q-1.1875 0 -1.90625 0.71875q-0.703125 0.703125 -0.703125 1.953125l-1.6875 -0.171875q0.171875 -1.890625 1.296875 -2.875q1.140625 -0.984375 3.03125 -0.984375q1.921875 0 3.046875 1.0625q1.125 1.0625 1.125 2.640625q0 0.796875 -0.328125 1.578125q-0.328125 0.78125 -1.09375 1.640625q-0.75 0.84375 -2.53125 2.34375q-1.46875 1.234375 -1.890625 1.6875q-0.421875 0.4375 -0.6875 0.875l6.546875 0z" fill-rule="nonzero"/></g></svg>