<svg version="1.1" viewBox="0.0 0.0 960.0 720.0" fill="none" stroke="none" stroke-linecap="square" stroke-miterlimit="10" xmlns:xlink="http://www.w3.org/1999/xlink" xmlns="http://www.w3.org/2000/svg"><clipPath id="p.0"><path d="m0 0l960.0 0l0 720.0l-960.0 0l0 -720.0z" clip-rule="nonzero"/></clipPath><g clip-path="url(#p.0)"><path fill="#000000" fill-opacity="0.0" d="m0 0l960.0 0l0 720.0l-960.0 0z" fill-rule="evenodd"/><path fill="#000000" fill-opacity="0.0" d="m69.38189 102.93569l-1.1023636 -61.66929" fill-rule="evenodd"/><path stroke="#000000" stroke-width="1.0" stroke-linejoin="round" stroke-linecap="butt" d="m69.38189 102.93569l-1.1023636 -61.66929" fill-rule="evenodd"/><path fill="#1c4587" d="m192.87927 288.2152l0 0c0 -14.863831 11.548935 -26.91336 25.795273 -26.91336l0 0c6.841324 0 13.402451 2.8355103 18.240005 7.882721c4.837555 5.047241 7.5552673 11.892792 7.5552673 19.03064l0 0c0 14.863861 -11.548935 26.913391 -25.795273 26.913391l0 0c-14.246338 0 -25.795273 -12.04953 -25.795273 -26.913391z" fill-rule="evenodd"/><path stroke="#000000" stroke-width="1.0" stroke-linejoin="round" stroke-linecap="butt" d="m192.87927 288.2152l0 0c0 -14.863831 11.548935 -26.91336 25.795273 -26.91336l0 0c6.841324 0 13.402451 2.8355103 18.240005 7.882721c4.837555 5.047241 7.5552673 11.892792 7.5552673 19.03064l0 0c0 14.863861 -11.548935 26.913391 -25.795273 26.913391l0 0c-14.246338 0 -25.795273 -12.04953 -25.795273 -26.913391z" fill-rule="evenodd"/><path fill="#cfe2f3" d="m183.93439 392.52756l60.53543 0l0 59.433075l-60.53543 0z" fill-rule="evenodd"/><path stroke="#000000" stroke-width="1.0" stroke-linejoin="round" stroke-linecap="butt" d="m183.93439 392.52756l60.53543 0l0 59.433075l-60.53543 0z" fill-rule="evenodd"/><path fill="#cfe2f3" d="m68.83448 273.8473l0 0c-3.2570496 0 -5.8974037 -2.6502075 -5.8974037 -5.919403l0 0c0 -1.5699463 0.62133026 -3.0755615 1.7273064 -4.185669c1.1059799 -1.1101074 2.6060104 -1.7337646 4.1700974 -1.7337646l0 0c3.257042 0 5.8974 2.6502075 5.8974 5.9194336l0 0c0 3.2691956 -2.640358 5.919403 -5.8974 5.919403z" fill-rule="evenodd"/><path stroke="#000000" stroke-width="1.0" stroke-linejoin="round" stroke-linecap="butt" d="m68.83448 273.8473l0 0c-3.2570496 0 -5.8974037 -2.6502075 -5.8974037 -5.919403l0 0c0 -1.5699463 0.62133026 -3.0755615 1.7273064 -4.185669c1.1059799 -1.1101074 2.6060104 -1.7337646 4.1700974 -1.7337646l0 0c3.257042 0 5.8974 2.6502075 5.8974 5.9194336l0 0c0 3.2691956 -2.640358 5.919403 -5.8974 5.919403z" fill-rule="evenodd"/><path fill="#cfe2f3" d="m44.577744 314.41492l24.257576 -40.567627l24.257576 40.567627z" fill-rule="evenodd"/><path stroke="#000000" stroke-width="1.0" stroke-linejoin="round" stroke-linecap="butt" d="m44.577744 314.41492l24.257576 -40.567627l24.257576 40.567627z" fill-rule="evenodd"/><path fill="#000000" fill-opacity="0.0" d="m69.274765 361.11703l-0.4394455 -46.702118" fill-rule="evenodd"/><path stroke="#000000" stroke-width="1.0" stroke-linejoin="round" stroke-linecap="butt" d="m69.274765 361.11703l-0.4394455 -46.702118" fill-rule="evenodd"/><path fill="#000000" fill-opacity="0.0" d="m69.27476 262.01324l-0.4394455 -46.70215" fill-rule="evenodd"/><path stroke="#000000" stroke-width="1.0" stroke-linejoin="round" stroke-linecap="butt" d="m69.27476 262.01324l-0.4394455 -46.70215" fill-rule="evenodd"/><path fill="#cfe2f3" d="m192.87927 111.049866l0 0c0 -14.863846 11.548935 -26.913383 25.795273 -26.913383l0 0c6.841324 0 13.402451 2.8355103 18.240005 7.8827515c4.837555 5.0472336 7.5552673 11.892761 7.5552673 19.030632l0 0c0 14.863853 -11.548935 26.913391 -25.795273 26.913391l0 0c-14.246338 0 -25.795273 -12.049538 -25.795273 -26.913391z" fill-rule="evenodd"/><path stroke="#000000" stroke-width="1.0" stroke-linejoin="round" stroke-linecap="butt" d="m192.87927 111.049866l0 0c0 -14.863846 11.548935 -26.913383 25.795273 -26.913383l0 0c6.841324 0 13.402451 2.8355103 18.240005 7.8827515c4.837555 5.0472336 7.5552673 11.892761 7.5552673 19.030632l0 0c0 14.863853 -11.548935 26.913391 -25.795273 26.913391l0 0c-14.246338 0 -25.795273 -12.049538 -25.795273 -26.913391z" fill-rule="evenodd"/><path fill="#cfe2f3" d="m68.830475 79.259766l0 0c-3.257042 0 -5.8974037 -3.2049866 -5.8974037 -7.158539l0 0c0 -3.9535522 2.6403618 -7.1585464 5.8974037 -7.1585464l0 0c3.2570496 0 5.8974 3.2049942 5.8974 7.1585464l0 0c0 3.9535522 -2.6403503 7.158539 -5.8974 7.158539z" fill-rule="evenodd"/><path stroke="#000000" stroke-width="1.0" stroke-linejoin="round" stroke-linecap="butt" d="m68.830475 79.259766l0 0c-3.257042 0 -5.8974037 -3.2049866 -5.8974037 -7.158539l0 0c0 -3.9535522 2.6403618 -7.1585464 5.8974037 -7.1585464l0 0c3.2570496 0 5.8974 3.2049942 5.8974 7.1585464l0 0c0 3.9535522 -2.6403503 7.158539 -5.8974 7.158539z" fill-rule="evenodd"/><path fill="#000000" fill-opacity="0.0" d="m86.35696 176.07349l-1.1023636 -61.66929" fill-rule="evenodd"/><path stroke="#000000" stroke-width="1.0" stroke-linejoin="round" stroke-linecap="butt" d="m86.35696 176.07349l-1.1023636 -61.66929" fill-rule="evenodd"/><path fill="#000000" fill-opacity="0.0" d="m55.25197 176.07349l-1.1023636 -61.66929" fill-rule="evenodd"/><path stroke="#000000" stroke-width="1.0" stroke-linejoin="round" stroke-linecap="butt" d="m55.25197 176.07349l-1.1023636 -61.66929" fill-rule="evenodd"/><path fill="#cfe2f3" d="m38.421066 142.4357l0 -31.385834l0 0c0 -17.333908 13.713486 -31.385826 30.629921 -31.385826c16.916443 0 30.629921 14.051918 30.629921 31.385826l0 31.385834z" fill-rule="evenodd"/><path stroke="#000000" stroke-width="1.0" stroke-linejoin="round" stroke-linecap="butt" d="m38.421066 142.4357l0 -31.385834l0 0c0 -17.333908 13.713486 -31.385826 30.629921 -31.385826c16.916443 0 30.629921 14.051918 30.629921 31.385826l0 31.385834z" fill-rule="evenodd"/><path fill="#000000" fill-opacity="0.0" d="m19.695538 392.52756l98.708664 0l0 59.433075l-98.708664 0z" fill-rule="evenodd"/><path fill="#000000" d="m40.412365 419.44757l0 -13.359375l5.046875 0q1.328125 0 2.03125 0.125q0.96875 0.171875 1.640625 0.640625q0.671875 0.453125 1.078125 1.28125q0.40625 0.828125 0.40625 1.828125q0 1.703125 -1.09375 2.890625q-1.078125 1.171875 -3.921875 1.171875l-3.421875 0l0 5.421875l-1.765625 0zm1.765625 -7.0l3.453125 0q1.71875 0 2.4375 -0.640625q0.71875 -0.640625 0.71875 -1.796875q0 -0.84375 -0.421875 -1.4375q-0.421875 -0.59375 -1.125 -0.78125q-0.4375 -0.125 -1.640625 -0.125l-3.421875 0l0 4.78125zm9.865448 2.15625q0 -2.6875 1.484375 -3.96875q1.25 -1.078125 3.046875 -1.078125q2.0 0 3.265625 1.3125q1.265625 1.296875 1.265625 3.609375q0 1.859375 -0.5625 2.9375q-0.5625 1.0625 -1.640625 1.65625q-1.0625 0.59375 -2.328125 0.59375q-2.03125 0 -3.28125 -1.296875q-1.25 -1.3125 -1.25 -3.765625zm1.6875 0q0 1.859375 0.796875 2.796875q0.8125 0.921875 2.046875 0.921875q1.21875 0 2.03125 -0.921875q0.8125 -0.9375 0.8125 -2.84375q0 -1.796875 -0.8125 -2.71875q-0.8125 -0.921875 -2.03125 -0.921875q-1.234375 0 -2.046875 0.921875q-0.796875 0.90625 -0.796875 2.765625zm9.281967 4.84375l0 -9.671875l1.4687538 0l0 1.46875q0.5625 -1.03125 1.03125 -1.359375q0.484375 -0.328125 1.0625 -0.328125q0.828125 0 1.6875 0.53125l-0.5625 1.515625q-0.609375 -0.359375 -1.203125 -0.359375q-0.546875 0 -0.96875 0.328125q-0.421875 0.328125 -0.609375 0.890625q-0.28125 0.875 -0.28125 1.921875l0 5.0625l-1.6250038 0zm9.806431 -1.46875l0.234375 1.453125q-0.6875 0.140625 -1.234375 0.140625q-0.890625 0 -1.390625 -0.28125q-0.484375 -0.28125 -0.6875 -0.734375q-0.203125 -0.46875 -0.203125 -1.9375l0 -5.578125l-1.203125 0l0 -1.265625l1.203125 0l0 -2.390625l1.625 -0.984375l0 3.375l1.65625 0l0 1.265625l-1.65625 0l0 5.671875q0 0.6875 0.078125 0.890625q0.09375 0.203125 0.28125 0.328125q0.203125 0.109375 0.578125 0.109375q0.265625 0 0.71875 -0.0625zm13.054108 1.46875l0 -1.21875q-0.90625 1.4375 -2.703125 1.4375q-1.15625 0 -2.125 -0.640625q-0.96875 -0.640625 -1.5 -1.78125q-0.53125 -1.140625 -0.53125 -2.625q0 -1.453125 0.484375 -2.625q0.484375 -1.1875 1.4375 -1.8125q0.96875 -0.625 2.171875 -0.625q0.875 0 1.546875 0.375q0.6875 0.359375 1.109375 0.953125l0 -4.796875l1.640625 0l0 13.359375l-1.53125 0zm-5.171875 -4.828125q0 1.859375 0.78125 2.78125q0.78125 0.921875 1.84375 0.921875q1.078125 0 1.828125 -0.875q0.75 -0.890625 0.75 -2.6875q0 -1.984375 -0.765625 -2.90625q-0.765625 -0.9375 -1.890625 -0.9375q-1.078125 0 -1.8125 0.890625q-0.734375 0.890625 -0.734375 2.8125zm15.906967 1.71875l1.6875 0.203125q-0.40625 1.484375 -1.484375 2.3125q-1.078125 0.8125 -2.765625 0.8125q-2.125 0 -3.375 -1.296875q-1.234375 -1.3125 -1.234375 -3.671875q0 -2.453125 1.25 -3.796875q1.265625 -1.34375 3.265625 -1.34375q1.9375 0 3.15625 1.328125q1.234375 1.3125 1.234375 3.703125q0 0.15625 0 0.4375l-7.21875 0q0.09375 1.59375 0.90625 2.453125q0.8125 0.84375 2.015625 0.84375q0.90625 0 1.546875 -0.46875q0.640625 -0.484375 1.015625 -1.515625zm-5.390625 -2.65625l5.40625 0q-0.109375 -1.21875 -0.625 -1.828125q-0.78125 -0.953125 -2.03125 -0.953125q-1.125 0 -1.90625 0.765625q-0.765625 0.75 -0.84375 2.015625z" fill-rule="nonzero"/><path fill="#000000" d="m43.84393 429.97882l0 -1.890625l1.640625 0l0 1.890625l-1.640625 0zm0 11.46875l0 -9.671875l1.640625 0l0 9.671875l-1.640625 0zm4.144821 0l0 -9.671875l1.46875 0l0 1.375q1.0625 -1.59375 3.078125 -1.59375q0.875 0 1.609375 0.3125q0.734375 0.3125 1.09375 0.828125q0.375 0.5 0.515625 1.203125q0.09375 0.453125 0.09375 1.59375l0 5.953125l-1.640625 0l0 -5.890625q0 -1.0 -0.203125 -1.484375q-0.1875 -0.5 -0.671875 -0.796875q-0.484375 -0.296875 -1.140625 -0.296875q-1.046875 0 -1.8125 0.671875q-0.75 0.65625 -0.75 2.515625l0 5.28125l-1.640625 0zm13.953842 -1.46875l0.234375 1.453125q-0.6875 0.140625 -1.234375 0.140625q-0.890625 0 -1.390625 -0.28125q-0.484375 -0.28125 -0.6875 -0.734375q-0.203125 -0.46875 -0.203125 -1.9375l0 -5.578125l-1.203125 0l0 -1.265625l1.203125 0l0 -2.390625l1.625 -0.984375l0 3.375l1.65625 0l0 1.265625l-1.65625 0l0 5.671875q0 0.6875 0.078125 0.890625q0.09375 0.203125 0.28125 0.328125q0.203125 0.109375 0.578125 0.109375q0.265625 0 0.71875 -0.0625zm1.5895538 1.46875l0 -9.671875l1.4687538 0l0 1.46875q0.5625 -1.03125 1.03125 -1.359375q0.484375 -0.328125 1.0625 -0.328125q0.828125 0 1.6875 0.53125l-0.5625 1.515625q-0.609375 -0.359375 -1.203125 -0.359375q-0.546875 0 -0.96875 0.328125q-0.421875 0.328125 -0.609375 0.890625q-0.28125 0.875 -0.28125 1.921875l0 5.0625l-1.6250038 0zm12.540806 -1.1875q-0.921875 0.765625 -1.765625 1.09375q-0.828125 0.3125 -1.796875 0.3125q-1.59375 0 -2.453125 -0.78125q-0.859375 -0.78125 -0.859375 -1.984375q0 -0.71875 0.328125 -1.296875q0.328125 -0.59375 0.84375 -0.9375q0.53125 -0.359375 1.1875 -0.546875q0.46875 -0.125 1.453125 -0.25q1.984375 -0.234375 2.921875 -0.5625q0.015625 -0.34375 0.015625 -0.421875q0 -1.0 -0.46875 -1.421875q-0.625 -0.546875 -1.875 -0.546875q-1.15625 0 -1.703125 0.40625q-0.546875 0.40625 -0.8125 1.421875l-1.609375 -0.21875q0.21875 -1.015625 0.71875 -1.640625q0.5 -0.640625 1.453125 -0.984375q0.953125 -0.34375 2.1875 -0.34375q1.25 0 2.015625 0.296875q0.78125 0.28125 1.140625 0.734375q0.375 0.4375 0.515625 1.109375q0.078125 0.421875 0.078125 1.515625l0 2.1875q0 2.28125 0.109375 2.890625q0.109375 0.59375 0.40625 1.15625l-1.703125 0q-0.265625 -0.515625 -0.328125 -1.1875zm-0.140625 -3.671875q-0.890625 0.375 -2.671875 0.625q-1.015625 0.140625 -1.4375 0.328125q-0.421875 0.1875 -0.65625 0.53125q-0.21875 0.34375 -0.21875 0.78125q0 0.65625 0.5 1.09375q0.5 0.4375 1.453125 0.4375q0.9375 0 1.671875 -0.40625q0.75 -0.421875 1.09375 -1.140625q0.265625 -0.5625 0.265625 -1.640625l0 -0.609375zm4.188217 4.859375l0 -9.671875l1.46875 0l0 1.46875q0.5625 -1.03125 1.03125 -1.359375q0.484375 -0.328125 1.0625 -0.328125q0.828125 0 1.6875 0.53125l-0.5625 1.515625q-0.609375 -0.359375 -1.203125 -0.359375q-0.546875 0 -0.96875 0.328125q-0.421875 0.328125 -0.609375 0.890625q-0.28125 0.875 -0.28125 1.921875l0 5.0625l-1.625 0zm12.853302 -3.109375l1.6875 0.203125q-0.40625 1.484375 -1.484375 2.3125q-1.078125 0.8125 -2.765625 0.8125q-2.125 0 -3.375 -1.296875q-1.234375 -1.3125 -1.234375 -3.671875q0 -2.453125 1.25 -3.796875q1.265625 -1.34375 3.265625 -1.34375q1.9375 0 3.15625 1.328125q1.234375 1.3125 1.234375 3.703125q0 0.15625 0 0.4375l-7.21875 0q0.09375 1.59375 0.90625 2.453125q0.8125 0.84375 2.015625 0.84375q0.90625 0 1.546875 -0.46875q0.640625 -0.484375 1.015625 -1.515625zm-5.390625 -2.65625l5.40625 0q-0.109375 -1.21875 -0.625 -1.828125q-0.78125 -0.953125 -2.03125 -0.953125q-1.125 0 -1.90625 0.765625q-0.765625 0.75 -0.84375 2.015625z" fill-rule="nonzero"/></g></svg>