<svg version="1.1" viewBox="0.0 0.0 960.0 720.0" fill="none" stroke="none" stroke-linecap="square" stroke-miterlimit="10" xmlns:xlink="http://www.w3.org/1999/xlink" xmlns="http://www.w3.org/2000/svg"><clipPath id="p.0"><path d="m0 0l960.0 0l0 720.0l-960.0 0l0 -720.0z" clip-rule="nonzero"/></clipPath><g clip-path="url(#p.0)"><path fill="#000000" fill-opacity="0.0" d="m0 0l960.0 0l0 720.0l-960.0 0z" fill-rule="evenodd"/><path fill="#000000" fill-opacity="0.0" d="m59.015747 89.12782l-0.88188934 -47.874016" fill-rule="evenodd"/><path stroke="#000000" stroke-width="1.0" stroke-linejoin="round" stroke-linecap="butt" d="m59.015747 89.12782l-0.88188934 -47.874016" fill-rule="evenodd"/><path fill="#20124d" d="m156.74767 232.91478l0 0c0 -11.532745 9.137619 -20.881882 20.409454 -20.881882l0 0c5.412918 0 10.604141 2.2000427 14.431656 6.11615c3.8275146 3.9161224 5.9777985 9.227509 5.9777985 14.765732l0 0c0 11.532745 -9.137634 20.881897 -20.409454 20.881897l0 0c-11.271835 0 -20.409454 -9.349152 -20.409454 -20.881897z" fill-rule="evenodd"/><path stroke="#000000" stroke-width="1.0" stroke-linejoin="round" stroke-linecap="butt" d="m156.74767 232.91478l0 0c0 -11.532745 9.137619 -20.881882 20.409454 -20.881882l0 0c5.412918 0 10.604141 2.2000427 14.431656 6.11615c3.8275146 3.9161224 5.9777985 9.227509 5.9777985 14.765732l0 0c0 11.532745 -9.137634 20.881897 -20.409454 20.881897l0 0c-11.271835 0 -20.409454 -9.349152 -20.409454 -20.881897z" fill-rule="evenodd"/><path fill="#ffffff" d="m149.66898 313.8748l47.905502 0l0 46.11023l-47.905502 0z" fill-rule="evenodd"/><path stroke="#000000" stroke-width="1.0" stroke-linejoin="round" stroke-linecap="butt" d="m149.66898 313.8748l47.905502 0l0 46.11023l-47.905502 0z" fill-rule="evenodd"/><path fill="#cfe2f3" d="m58.58573 221.77861l0 0c-2.5777397 0 -4.667412 -2.0566864 -4.667412 -4.5937347l0 0c0 -1.218338 0.491745 -2.3867645 1.367054 -3.2482605c0.875309 -0.8614807 2.0624847 -1.3454742 3.3003578 -1.3454742l0 0c2.5777435 0 4.6674156 2.0566864 4.6674156 4.5937347l0 0c0 2.5370483 -2.089672 4.5937347 -4.6674156 4.5937347z" fill-rule="evenodd"/><path stroke="#000000" stroke-width="1.0" stroke-linejoin="round" stroke-linecap="butt" d="m58.58573 221.77861l0 0c-2.5777397 0 -4.667412 -2.0566864 -4.667412 -4.5937347l0 0c0 -1.218338 0.491745 -2.3867645 1.367054 -3.2482605c0.875309 -0.8614807 2.0624847 -1.3454742 3.3003578 -1.3454742l0 0c2.5777435 0 4.6674156 2.0566864 4.6674156 4.5937347l0 0c0 2.5370483 -2.089672 4.5937347 -4.6674156 4.5937347z" fill-rule="evenodd"/><path fill="#cfe2f3" d="m39.3881 253.2608l19.1983 -31.482193l19.1983 31.482193z" fill-rule="evenodd"/><path stroke="#000000" stroke-width="1.0" stroke-linejoin="round" stroke-linecap="butt" d="m39.3881 253.2608l19.1983 -31.482193l19.1983 31.482193z" fill-rule="evenodd"/><path fill="#000000" fill-opacity="0.0" d="m58.934193 289.51602l-0.34779358 -36.25522" fill-rule="evenodd"/><path stroke="#000000" stroke-width="1.0" stroke-linejoin="round" stroke-linecap="butt" d="m58.934193 289.51602l-0.34779358 -36.25522" fill-rule="evenodd"/><path fill="#000000" fill-opacity="0.0" d="m58.934185 212.59486l-0.34779358 -36.242844" fill-rule="evenodd"/><path stroke="#000000" stroke-width="1.0" stroke-linejoin="round" stroke-linecap="butt" d="m58.934185 212.59486l-0.34779358 -36.242844" fill-rule="evenodd"/><path fill="#ffffff" d="m156.74767 95.41999l0 0c0 -11.532753 9.137619 -20.881897 20.409454 -20.881897l0 0c5.412918 0 10.604141 2.2000504 14.431656 6.116165c3.8275146 3.9161148 5.9777985 9.227509 5.9777985 14.765732l0 0c0 11.532745 -9.137634 20.88189 -20.409454 20.88189l0 0c-11.271835 0 -20.409454 -9.349144 -20.409454 -20.88189z" fill-rule="evenodd"/><path stroke="#000000" stroke-width="1.0" stroke-linejoin="round" stroke-linecap="butt" d="m156.74767 95.41999l0 0c0 -11.532753 9.137619 -20.881897 20.409454 -20.881897l0 0c5.412918 0 10.604141 2.2000504 14.431656 6.116165c3.8275146 3.9161148 5.9777985 9.227509 5.9777985 14.765732l0 0c0 11.532745 -9.137634 20.88189 -20.409454 20.88189l0 0c-11.271835 0 -20.409454 -9.349144 -20.409454 -20.88189z" fill-rule="evenodd"/><path fill="#cfe2f3" d="m58.573772 70.753365l0 0c-2.5744286 0 -4.661415 -2.4888687 -4.661415 -5.5590515l0 0c0 -3.0701828 2.0869865 -5.5590553 4.661415 -5.5590553l0 0c2.5744324 0 4.661419 2.4888725 4.661419 5.5590553l0 0c0 3.0701828 -2.0869865 5.5590515 -4.661419 5.5590515z" fill-rule="evenodd"/><path stroke="#000000" stroke-width="1.0" stroke-linejoin="round" stroke-linecap="butt" d="m58.573772 70.753365l0 0c-2.5744286 0 -4.661415 -2.4888687 -4.661415 -5.5590515l0 0c0 -3.0701828 2.0869865 -5.5590553 4.661415 -5.5590553l0 0c2.5744324 0 4.661419 2.4888725 4.661419 5.5590553l0 0c0 3.0701828 -2.0869865 5.5590515 -4.661419 5.5590515z" fill-rule="evenodd"/><path fill="#000000" fill-opacity="0.0" d="m72.44928 145.88873l-0.88188934 -47.874016" fill-rule="evenodd"/><path stroke="#000000" stroke-width="1.0" stroke-linejoin="round" stroke-linecap="butt" d="m72.44928 145.88873l-0.88188934 -47.874016" fill-rule="evenodd"/><path fill="#000000" fill-opacity="0.0" d="m47.833775 145.88873l-0.88188934 -47.874016" fill-rule="evenodd"/><path stroke="#000000" stroke-width="1.0" stroke-linejoin="round" stroke-linecap="butt" d="m47.833775 145.88873l-0.88188934 -47.874016" fill-rule="evenodd"/><path fill="#cfe2f3" d="m34.51433 119.78305l0 -24.362206l0 0c0 -13.454872 10.850925 -24.362206 24.236217 -24.362206c13.3853 0 24.236221 10.907333 24.236221 24.362206l0 24.362206z" fill-rule="evenodd"/><path stroke="#000000" stroke-width="1.0" stroke-linejoin="round" stroke-linecap="butt" d="m34.51433 119.78305l0 -24.362206l0 0c0 -13.454872 10.850925 -24.362206 24.236217 -24.362206c13.3853 0 24.236221 10.907333 24.236221 24.362206l0 24.362206z" fill-rule="evenodd"/><path fill="#000000" fill-opacity="0.0" d="m11.018373 304.17847l95.46457 0l0 46.11026l-95.46457 0z" fill-rule="evenodd"/><path fill="#000000" d="m30.113153 331.09848l0 -13.359375l5.046873 0q1.328125 0 2.03125 0.125q0.96875 0.171875 1.640625 0.640625q0.671875 0.453125 1.078125 1.28125q0.40625 0.828125 0.40625 1.828125q0 1.703125 -1.09375 2.890625q-1.078125 1.171875 -3.921875 1.171875l-3.421873 0l0 5.421875l-1.765625 0zm1.765625 -7.0l3.453123 0q1.71875 0 2.4375 -0.640625q0.71875 -0.640625 0.71875 -1.796875q0 -0.84375 -0.421875 -1.4375q-0.421875 -0.59375 -1.125 -0.78125q-0.4375 -0.125 -1.640625 -0.125l-3.421873 0l0 4.78125zm9.865446 2.15625q0 -2.6875 1.484375 -3.96875q1.25 -1.078125 3.046875 -1.078125q2.0 0 3.265625 1.3125q1.265625 1.296875 1.265625 3.609375q0 1.859375 -0.5625 2.9375q-0.5625 1.0625 -1.640625 1.65625q-1.0625 0.59375 -2.328125 0.59375q-2.03125 0 -3.28125 -1.296875q-1.25 -1.3125 -1.25 -3.765625zm1.6875 0q0 1.859375 0.796875 2.796875q0.8125 0.921875 2.046875 0.921875q1.21875 0 2.03125 -0.921875q0.8125 -0.9375 0.8125 -2.84375q0 -1.796875 -0.8125 -2.71875q-0.8125 -0.921875 -2.03125 -0.921875q-1.234375 0 -2.046875 0.921875q-0.796875 0.90625 -0.796875 2.765625zm9.281967 4.84375l0 -9.671875l1.46875 0l0 1.46875q0.5625 -1.03125 1.03125 -1.359375q0.484375 -0.328125 1.0625 -0.328125q0.828125 0 1.6875 0.53125l-0.5625 1.515625q-0.609375 -0.359375 -1.203125 -0.359375q-0.546875 0 -0.96875 0.328125q-0.421875 0.328125 -0.609375 0.890625q-0.28125 0.875 -0.28125 1.921875l0 5.0625l-1.625 0zm9.806427 -1.46875l0.234375 1.453125q-0.6875 0.140625 -1.234375 0.140625q-0.890625 0 -1.390625 -0.28125q-0.484375 -0.28125 -0.6875 -0.734375q-0.203125 -0.46875 -0.203125 -1.9375l0 -5.578125l-1.203125 0l0 -1.265625l1.203125 0l0 -2.390625l1.625 -0.984375l0 3.375l1.65625 0l0 1.265625l-1.65625 0l0 5.671875q0 0.6875 0.078125 0.890625q0.09375 0.203125 0.28125 0.328125q0.203125 0.109375 0.578125 0.109375q0.265625 0 0.71875 -0.0625zm13.054108 1.46875l0 -1.21875q-0.90625 1.4375 -2.703125 1.4375q-1.15625 0 -2.125 -0.640625q-0.96875 -0.640625 -1.5 -1.78125q-0.53125 -1.140625 -0.53125 -2.625q0 -1.453125 0.484375 -2.625q0.484375 -1.1875 1.4375 -1.8125q0.96875 -0.625 2.171875 -0.625q0.875 0 1.546875 0.375q0.6875 0.359375 1.109375 0.953125l0 -4.796875l1.640625 0l0 13.359375l-1.53125 0zm-5.171875 -4.828125q0 1.859375 0.78125 2.78125q0.78125 0.921875 1.84375 0.921875q1.078125 0 1.828125 -0.875q0.75 -0.890625 0.75 -2.6875q0 -1.984375 -0.765625 -2.90625q-0.765625 -0.9375 -1.890625 -0.9375q-1.078125 0 -1.8125 0.890625q-0.734375 0.890625 -0.734375 2.8125zm15.906967 1.71875l1.6875 0.203125q-0.40625 1.484375 -1.484375 2.3125q-1.078125 0.8125 -2.765625 0.8125q-2.125 0 -3.375 -1.296875q-1.234375 -1.3125 -1.234375 -3.671875q0 -2.453125 1.25 -3.796875q1.265625 -1.34375 3.265625 -1.34375q1.9375 0 3.15625 1.328125q1.234375 1.3125 1.234375 3.703125q0 0.15625 0 0.4375l-7.21875 0q0.09375 1.59375 0.90625 2.453125q0.8125 0.84375 2.015625 0.84375q0.90625 0 1.546875 -0.46875q0.640625 -0.484375 1.015625 -1.515625zm-5.390625 -2.65625l5.40625 0q-0.109375 -1.21875 -0.625 -1.828125q-0.78125 -0.953125 -2.03125 -0.953125q-1.125 0 -1.90625 0.765625q-0.765625 0.75 -0.84375 2.015625z" fill-rule="nonzero"/><path fill="#000000" d="m33.544716 341.62973l0 -1.890625l1.640625 0l0 1.890625l-1.640625 0zm0 11.46875l0 -9.671875l1.640625 0l0 9.671875l-1.640625 0zm4.144821 0l0 -9.671875l1.46875 0l0 1.375q1.0625 -1.59375 3.078125 -1.59375q0.875 0 1.609375 0.3125q0.734375 0.3125 1.09375 0.828125q0.375 0.5 0.515625 1.203125q0.09375 0.453125 0.09375 1.59375l0 5.953125l-1.640625 0l0 -5.890625q0 -1.0 -0.203125 -1.484375q-0.1875 -0.5 -0.671875 -0.796875q-0.484375 -0.296875 -1.140625 -0.296875q-1.046875 0 -1.8125 0.671875q-0.75 0.65625 -0.75 2.515625l0 5.28125l-1.640625 0zm13.953842 -1.46875l0.234375 1.453125q-0.6875 0.140625 -1.234375 0.140625q-0.890625 0 -1.390625 -0.28125q-0.484375 -0.28125 -0.6875 -0.734375q-0.203125 -0.46875 -0.203125 -1.9375l0 -5.578125l-1.203125 0l0 -1.265625l1.203125 0l0 -2.390625l1.625 -0.984375l0 3.375l1.65625 0l0 1.265625l-1.65625 0l0 5.671875q0 0.6875 0.078125 0.890625q0.09375 0.203125 0.28125 0.328125q0.203125 0.109375 0.578125 0.109375q0.265625 0 0.71875 -0.0625zm1.5895538 1.46875l0 -9.671875l1.46875 0l0 1.46875q0.5625 -1.03125 1.03125 -1.359375q0.484375 -0.328125 1.0625 -0.328125q0.828125 0 1.6875 0.53125l-0.5625 1.515625q-0.609375 -0.359375 -1.203125 -0.359375q-0.546875 0 -0.96875 0.328125q-0.421875 0.328125 -0.609375 0.890625q-0.28125 0.875 -0.28125 1.921875l0 5.0625l-1.625 0zm12.540802 -1.1875q-0.921875 0.765625 -1.765625 1.09375q-0.828125 0.3125 -1.796875 0.3125q-1.59375 0 -2.453125 -0.78125q-0.859375 -0.78125 -0.859375 -1.984375q0 -0.71875 0.328125 -1.296875q0.328125 -0.59375 0.84375 -0.9375q0.53125 -0.359375 1.1875 -0.546875q0.46875 -0.125 1.453125 -0.25q1.984375 -0.234375 2.921875 -0.5625q0.015625 -0.34375 0.015625 -0.421875q0 -1.0 -0.46875 -1.421875q-0.625 -0.546875 -1.875 -0.546875q-1.15625 0 -1.703125 0.40625q-0.546875 0.40625 -0.8125 1.421875l-1.609375 -0.21875q0.21875 -1.015625 0.71875 -1.640625q0.5 -0.640625 1.453125 -0.984375q0.953125 -0.34375 2.1875 -0.34375q1.25 0 2.015625 0.296875q0.78125 0.28125 1.140625 0.734375q0.375 0.4375 0.515625 1.109375q0.078125 0.421875 0.078125 1.515625l0 2.1875q0 2.28125 0.109375 2.890625q0.109375 0.59375 0.40625 1.15625l-1.703125 0q-0.265625 -0.515625 -0.328125 -1.1875zm-0.140625 -3.671875q-0.890625 0.375 -2.671875 0.625q-1.015625 0.140625 -1.4375 0.328125q-0.421875 0.1875 -0.65625 0.53125q-0.21875 0.34375 -0.21875 0.78125q0 0.65625 0.5 1.09375q0.5 0.4375 1.453125 0.4375q0.9375 0 1.671875 -0.40625q0.75 -0.421875 1.09375 -1.140625q0.265625 -0.5625 0.265625 -1.640625l0 -0.609375zm4.188217 4.859375l0 -9.671875l1.46875 0l0 1.46875q0.5625 -1.03125 1.03125 -1.359375q0.484375 -0.328125 1.0625 -0.328125q0.828125 0 1.6875 0.53125l-0.5625 1.515625q-0.609375 -0.359375 -1.203125 -0.359375q-0.546875 0 -0.96875 0.328125q-0.421875 0.328125 -0.609375 0.890625q-0.28125 0.875 -0.28125 1.921875l0 5.0625l-1.625 0zm12.853302 -3.109375l1.6875 0.203125q-0.40625 1.484375 -1.484375 2.3125q-1.078125 0.8125 -2.765625 0.8125q-2.125 0 -3.375 -1.296875q-1.234375 -1.3125 -1.234375 -3.671875q0 -2.453125 1.25 -3.796875q1.265625 -1.34375 3.265625 -1.34375q1.9375 0 3.15625 1.328125q1.234375 1.3125 1.234375 3.703125q0 0.15625 0 0.4375l-7.21875 0q0.09375 1.59375 0.90625 2.453125q0.8125 0.84375 2.015625 0.84375q0.90625 0 1.546875 -0.46875q0.640625 -0.484375 1.015625 -1.515625zm-5.390625 -2.65625l5.40625 0q-0.109375 -1.21875 -0.625 -1.828125q-0.78125 -0.953125 -2.03125 -0.953125q-1.125 0 -1.90625 0.765625q-0.765625 0.75 -0.84375 2.015625z" fill-rule="nonzero"/></g></svg>